<?xml version="1.0" encoding="UTF-8"?>
<svg width="1082" height="841" data-name="Calque 1" inkscape:version="1.0beta1 (32d4812, 2019-09-19)" sodipodi:docname="nomad_full_opt.svg" version="1.1" viewBox="0 0 1082 841" xmlns="http://www.w3.org/2000/svg" xmlns:cc="http://creativecommons.org/ns#" xmlns:dc="http://purl.org/dc/elements/1.1/" xmlns:inkscape="http://www.inkscape.org/namespaces/inkscape" xmlns:rdf="http://www.w3.org/1999/02/22-rdf-syntax-ns#" xmlns:sodipodi="http://sodipodi.sourceforge.net/DTD/sodipodi-0.dtd">
 <metadata>
  <rdf:RDF>
   <cc:Work rdf:about="">
    <dc:format>image/svg+xml</dc:format>
    <dc:type rdf:resource="http://purl.org/dc/dcmitype/StillImage"/>
    <dc:title>Nomad logo</dc:title>
   </cc:Work>
  </rdf:RDF>
 </metadata>
 <sodipodi:namedview bordercolor="#666666" borderopacity="1" gridtolerance="10" guidetolerance="10" inkscape:current-layer="Calque_1" inkscape:cx="167.1172" inkscape:cy="421.2143" inkscape:document-rotation="0" inkscape:pageopacity="0" inkscape:pageshadow="2" inkscape:window-height="1077" inkscape:window-maximized="0" inkscape:window-width="1836" inkscape:window-x="485" inkscape:window-y="194" inkscape:zoom="0.35" objecttolerance="10" pagecolor="#ffffff" showgrid="false"/>
 <defs>
  <style>.cls-1{fill:#1a2b3f;}.cls-2,.cls-4{fill:#46b172;}.cls-3{fill:#fff;}.cls-4{stroke:#46b172;stroke-miterlimit:10;stroke-width:21.21px;}</style>
 </defs>
 <title>Nomad logo</title>
 <circle class="cls-1" cx="539" cy="199" r="199"/>
 <path class="cls-1" d="m146 522a62 62 0 0 1 25 26q9.1 17 9.1 41v72a15 15 0 1 1-30 0v-72q0-24-13-36t-34-12a50 50 0 0 0-22 5 40 40 0 0 0-16 14 33 33 0 0 0-5.7 19v83a15 15 0 0 1-4.1 11 15 15 0 0 1-26-11v-131a14 14 0 0 1 4.3-11 15 15 0 0 1 11-4.1q6.8 0 11 4.1t4.1 11v3.2a65 65 0 0 1 22-15 74 74 0 0 1 28-5.1q20 0 36 8.8z" inkscape:connector-curvature="0"/>
 <path class="cls-2" d="m260 667a74 74 0 0 1-29-29q-10-19-10-42 0-24 10-42a74 74 0 0 1 29-29q19-10 42-10 23 0 42 10a75 75 0 0 1 29 29q10 19 10 42 0 24-10 42a74 74 0 0 1-29 29q-18 10-42 10t-42-10zm69-23a49 49 0 0 0 19-20 60 60 0 0 0 6.6-28 60 60 0 0 0-6.6-29 48 48 0 0 0-19-20 55 55 0 0 0-54 0 49 49 0 0 0-19 20 59 59 0 0 0-6.8 29 59 59 0 0 0 6.8 28 50 50 0 0 0 19 20 55 55 0 0 0 54 0z" inkscape:connector-curvature="0"/>
 <path class="cls-1" d="m638 530q16 17 16 47v84a15 15 0 0 1-4.1 11 15 15 0 0 1-26-11v-84q0-18-9-27t-24-9.2q-15 0-25 11t-9.8 27v83a15 15 0 0 1-4.1 11 15 15 0 0 1-26-11v-84q0-18-9-27t-24-9.2q-16 0-25 11t-9.8 27v83a15 15 0 0 1-4.1 11 15 15 0 0 1-26-11v-131a14 14 0 0 1 4.3-11 15 15 0 0 1 11-4.1 15 15 0 0 1 11 4 15 15 0 0 1 4.4 10 54 54 0 0 1 18-12 61 61 0 0 1 23-4.3 59 59 0 0 1 27 6 52 52 0 0 1 20 17 61 61 0 0 1 22-17 69 69 0 0 1 29-6.2q26-0.04 41 17z" inkscape:connector-curvature="0"/>
 <path class="cls-1" d="m817 525a79 79 0 0 1 29 29 82 82 0 0 1 11 42v66a15 15 0 1 1-30 0v-11a74 74 0 0 1-95 16 74 74 0 0 1-27-29q-9.8-19-9.8-42a83 83 0 0 1 11-42 77 77 0 0 1 29-29 81 81 0 0 1 41-11 80 80 0 0 1 41 11zm-14 119a51 51 0 0 0 19-20 58 58 0 0 0 6.8-28 59 59 0 0 0-6.8-28 52 52 0 0 0-72-20 52 52 0 0 0-19 20 58 58 0 0 0-6.9 28 57 57 0 0 0 6.9 28 52 52 0 0 0 19 20 53 53 0 0 0 53 0z" inkscape:connector-curvature="0"/>
 <path class="cls-1" d="m1051 450a15 15 0 0 1 4.1 11v134a82 82 0 0 1-11 42 79 79 0 0 1-29 29 80 80 0 0 1-41 11 81 81 0 0 1-41-11 77 77 0 0 1-29-29 83 83 0 0 1-11-42q0-23 9.8-42a74 74 0 0 1 27-29 72 72 0 0 1 38-11 72 72 0 0 1 57 27v-79a14 14 0 0 1 4.3-11 16 16 0 0 1 22 0zm-50 193a51 51 0 0 0 19-20 59 59 0 0 0 6.8-28 58 58 0 0 0-6.8-28 51 51 0 0 0-19-20 53 53 0 0 0-53 0 52 52 0 0 0-19 20 57 57 0 0 0-6.9 28 58 58 0 0 0 6.9 28 52 52 0 0 0 19 20 53 53 0 0 0 53 0z" inkscape:connector-curvature="0"/>
 <path class="cls-1" d="m20 759a23 23 0 0 1 8.8-2.6 5.7 5.7 0 0 1 0.78-0.05 10 10 0 0 1 7.4 3.4 18 18 0 0 1 4.2 11c0.07 1 0.11 2 0.11 3a39 39 0 0 1-1.2 9.8 37 37 0 0 1-4.6 11q-5.8 8.7-14 8.7a22 22 0 0 1-8.5-1.9q-0.06 5.9-0.05 12t0.05 12c0 0.86 0.07 1.8 0.1 2.8 0.11 1.2 0.16 2.4 0.16 3.5 0 0.73 0 1.5-0.05 2.2a11 11 0 0 1-1.4 5 6 6 0 0 1-4.3 2.8 13 13 0 0 1-2.1 0.21c-2.2 0-3.7-0.73-4.4-2.2a13 13 0 0 1-1.2-5.9q0-0.57 0.06-1.1 0.09-17 0.1-33v-26q0-4.5-0.05-9v-0.32q0-6.9 7-7.1 4.6 0.06 5.5 2.4a12 12 0 0 1 0.73 4.3 14 14 0 0 1-0.1 1.7 7.3 7.3 0 0 0-0.05 0.88 24 24 0 0 1 3.3-3.5 22 22 0 0 1 4-2.6zm-7.4 26v5.5a11 11 0 0 1-0.05 1.2v0.57a0.44 0.44 0 0 0 0.2 0.37l0.63 0.42a0.14 0.14 0 0 1 0.11 0.05 15 15 0 0 0 7.6 2.4 7.9 7.9 0 0 0 2.9-0.52 13 13 0 0 0 6.8-6.5 28 28 0 0 0 3-10 27 27 0 0 0 0.16-2.9 22 22 0 0 0-1.1-7.1q-1.5-4-3.8-4.5a4.9 4.9 0 0 0-1-0.11 7.2 7.2 0 0 0-3.8 1.2 25 25 0 0 0-4.7 4 23 23 0 0 0-4.4 7.1 52 52 0 0 0-2.2 7.9z" inkscape:connector-curvature="0"/>
 <path class="cls-1" d="m62 759a32 32 0 0 1 11-2c0.76 0 1.5 0 2.3 0.05a21 21 0 0 1 13 4.6 24 24 0 0 1 6.8 13 29 29 0 0 1 0.52 5.4 27 27 0 0 1-1.6 9.2 22 22 0 0 1-9.2 11 29 29 0 0 1-10 3.4 22 22 0 0 1-3.1 0.21 24 24 0 0 1-7.7-1.3 18 18 0 0 1-9.7-8.1 29 29 0 0 1-4-13c-0.07-0.73-0.1-1.4-0.1-2.2a27 27 0 0 1 2.4-11 19 19 0 0 1 9.4-9.2zm13 37a12 12 0 0 0 9.2-4.9 18 18 0 0 0 3.7-10l0.06-1.1a23 23 0 0 0-1.3-7.7 13 13 0 0 0-4.8-6.6 9.6 9.6 0 0 0-5.7-1.6 16 16 0 0 0-3 0.3q-6.2 1.5-8.7 6.1a16 16 0 0 0-1.9 7.6 20 20 0 0 0 0.26 3.1 24 24 0 0 0 3.7 9.7 11 11 0 0 0 8.4 5.4z" inkscape:connector-curvature="0"/>
 <path class="cls-1" d="m116 790c1.4 3.1 3.2 4.9 5.5 5.5a2.6 2.6 0 0 0 0.57 0.05 4.2 4.2 0 0 0 2.9-1.2 14 14 0 0 0 2.9-3.4 22 22 0 0 0 1.8-3.4 65 65 0 0 0 3.8-17c0.07-0.8 0.11-1.8 0.11-2.9a45 45 0 0 1 0.36-5.6 8.9 8.9 0 0 1 1.8-4.6 4 4 0 0 1 3.2-1.2 8.7 8.7 0 0 1 1.7 0.16 5.4 5.4 0 0 1 3.6 2.8 12 12 0 0 1 1.2 4.9c0.1 1.5 0.15 2.9 0.15 4.3v1c0 0.66-0.05 1.2-0.05 1.8v3.9q0 3.9-0.05 7.8c0 1 0 2.1-0.05 3.1v1.6l0.05 1.8c0 1.9-0.09 3.9-0.26 6a13 13 0 0 1-1.9 6.3 4.6 4.6 0 0 1-3.1 1.4 3.6 3.6 0 0 1-1-0.16 6.6 6.6 0 0 1-3.4-2.8 13 13 0 0 1-1.9-4.3 9.7 9.7 0 0 1-0.15-1.4c0-0.24 0-0.35-0.05-0.34a1.4 1.4 0 0 0-0.27 0.39 24 24 0 0 1-1.4 2.1 20 20 0 0 1-6.2 5.9 8.9 8.9 0 0 1-4.5 1.2 13 13 0 0 1-3.8-0.63 13 13 0 0 1-6.7-6.2 38 38 0 0 1-3.8-9.8c-0.87-3.6-1.5-6.7-1.9-9.4-0.2-1.2-0.47-3.1-0.78-5.7s-0.52-5.1-0.63-7.6c0-0.66-0.05-1.3-0.05-1.8a11 11 0 0 1 0.42-3.5c0.76-1.5 1.8-2.3 3-2.3h0.11a12 12 0 0 1 1.4-0.25q5.2 0 5.2 7.5v5.4q0 3-0.11 7.6 0.69 10 2.2 14z" inkscape:connector-curvature="0"/>
 <path class="cls-1" d="m174 769a33 33 0 0 0-3.2 6 34 34 0 0 0-2.6 7.7 25 25 0 0 0-0.36 4.4c0 0.56 0 1.1 0.05 1.7 0 1.3 0.05 2.8 0.05 4.7v0.32a12 12 0 0 1-1.2 5.8c-0.76 1.5-2.4 2.3-4.8 2.3h-0.32q-4.2-0.42-5-3.5a18 18 0 0 1-0.62-4.8 18 18 0 0 1 0.1-1.9c0-0.45 0.05-0.91 0.05-1.4s0-0.83 0.06-1.2l0.1-4.6v-4.2q0-8.3-0.16-17v-0.79a9.1 9.1 0 0 1 1.2-5.1c1-1.4 2.8-2.1 5.6-2.1q3.5 0 4.5 9l0.26 2.3a23 23 0 0 1 1.3-3 11 11 0 0 1 1.8-2.7 21 21 0 0 1 6.3-4.4 13 13 0 0 1 5.1-1 16 16 0 0 1 5.1 0.88 4.5 4.5 0 0 1 2.5 2.1 2.6 2.6 0 0 1 0.47 1.5 22 22 0 0 1-0.1 2.6 7.4 7.4 0 0 1-0.42 1.6c-0.76 2-1.9 3.1-3.4 3.1h-0.63c-1 0-2.6-0.82-4.8-2.5a2.4 2.4 0 0 0-1.3-0.73 5.8 5.8 0 0 0-2.9 1.2 13 13 0 0 0-2.9 3.2z" inkscape:connector-curvature="0"/>
 <path class="cls-1" d="m233 790c1.4 3.1 3.2 4.9 5.5 5.5a2.6 2.6 0 0 0 0.57 0.05 4.2 4.2 0 0 0 2.9-1.2 14 14 0 0 0 2.9-3.4 22 22 0 0 0 1.8-3.4 65 65 0 0 0 3.8-17c0.07-0.8 0.11-1.8 0.11-2.9a45 45 0 0 1 0.36-5.6 8.9 8.9 0 0 1 1.8-4.6 4 4 0 0 1 3.2-1.2 8.7 8.7 0 0 1 1.7 0.16 5.4 5.4 0 0 1 3.6 2.8 12 12 0 0 1 1.2 4.9c0.1 1.5 0.15 2.9 0.15 4.3v1c0 0.66-0.05 1.2-0.05 1.8v3.9q0 3.9-0.05 7.8c0 1 0 2.1-0.05 3.1v1.6l0.05 1.8c0 1.9-0.09 3.9-0.26 6a13 13 0 0 1-1.9 6.3 4.6 4.6 0 0 1-3.1 1.4 3.6 3.6 0 0 1-1-0.16 6.6 6.6 0 0 1-3.4-2.8 13 13 0 0 1-1.9-4.3 9.7 9.7 0 0 1-0.15-1.4c0-0.24 0-0.35-0.05-0.34a1.4 1.4 0 0 0-0.27 0.39 24 24 0 0 1-1.4 2.1 20 20 0 0 1-6.2 5.9 8.9 8.9 0 0 1-4.5 1.2 13 13 0 0 1-3.8-0.63 13 13 0 0 1-6.7-6.2 38 38 0 0 1-3.8-9.8c-0.87-3.6-1.5-6.7-1.9-9.4-0.2-1.2-0.47-3.1-0.78-5.7s-0.52-5.1-0.63-7.6c0-0.66-0.05-1.3-0.05-1.8a11 11 0 0 1 0.42-3.5c0.76-1.5 1.8-2.3 3-2.3h0.11a12 12 0 0 1 1.4-0.25q5.2 0 5.2 7.5v5.4q0 3-0.11 7.6 0.72 10 2.2 14z" inkscape:connector-curvature="0"/>
 <path class="cls-1" d="m293 759q5.5-2.6 9.4-2.6a9.2 9.2 0 0 1 2.4 0.3 10 10 0 0 1 6.6 5.9 35 35 0 0 1 2.7 12q0.63 7.3 0.63 15 0 3.9-0.16 7.7a7.6 7.6 0 0 1-1.6 4.2 3.7 3.7 0 0 1-3 1.4 6.7 6.7 0 0 1-1.4-0.15 3.5 3.5 0 0 1-2.7-3c0-0.45-0.05-0.9-0.05-1.4a16 16 0 0 1 0.31-3.1c0.07-0.44 0.12-0.86 0.16-1.2q0.31-2.4 0.52-7.3c0.07-1.4 0.11-2.9 0.11-4.4 0-1.8-0.06-3.6-0.16-5.6a33 33 0 0 0-1.6-8.9q-1.3-3.7-4.1-4.1h-0.42q-2.7 0-7.1 4.6l-0.88 0.93a27 27 0 0 0-5.2 9.3 32 32 0 0 0-1.7 10v0.32c0 0.66 0 1.3 0.05 2s0.06 1.3 0.06 2a37 37 0 0 1-0.21 4 8 8 0 0 1-1.9 4.8 5.2 5.2 0 0 1-4 1.4 16 16 0 0 1-1.7-0.1q-4.4-0.8-5.2-3.6a16 16 0 0 1-0.47-4 25 25 0 0 1 0.15-2.6l0.11-2.4q0.1-4.2 0.1-8.2t-0.1-8.1q-0.06-4.4-0.05-8.9c0-3 0.8-5.3 2.4-6.8a6.1 6.1 0 0 1 4.4-1.6 13 13 0 0 1 2.6 0.3c1.9 0.49 3 1.3 3.3 2.6a10 10 0 0 1 0.42 3c0 0.42 0 0.83-0.05 1.2s-0.05 0.85-0.05 1.3c0 0.28 0 0.42 0.1 0.42h0.05c0.07 0 0.16-0.08 0.26-0.21a3.1 3.1 0 0 0 0.42-0.52l0.63-0.83a22 22 0 0 1 2.2-2.1l0.1-0.1a21 21 0 0 1 3.6-2.4z" inkscape:connector-curvature="0"/>
 <path class="cls-1" d="m335 782c0 0.45-0.05 0.92-0.05 1.4a24 24 0 0 0 0.42 4.3 15 15 0 0 0 2.1 5.5 6.3 6.3 0 0 0 4.3 2.9 9.5 9.5 0 0 0 1 0.05 7.1 7.1 0 0 0 5-2 20 20 0 0 0 4-5.2c0.27-0.56 0.52-1.1 0.73-1.7a7.8 7.8 0 0 1 1.1-2.2 1.6 1.6 0 0 1 1.4-0.63 5 5 0 0 1 0.62 0.05 2.8 2.8 0 0 1 2.1 2.2 7.8 7.8 0 0 1 0.15 1.6 9.2 9.2 0 0 1-0.26 2.1 16 16 0 0 1-1.1 3.3 17 17 0 0 1-16 9.9 19 19 0 0 1-4.5-0.57 15 15 0 0 1-9.2-6.7 27 27 0 0 1-3.8-11 46 46 0 0 1-0.31-5.3 42 42 0 0 1 0.57-6.9q1.6-9.3 7.2-13a18 18 0 0 1 11-3.3 26 26 0 0 1 3.6 0.27 15 15 0 0 1 8.2 3.7q3.3 2.9 3.3 8.1v0.47a11 11 0 0 1-1.7 5.3 14 14 0 0 1-3.9 3.9 25 25 0 0 1-7.7 3.1 51 51 0 0 1-8.2 1.1zm14-16a4.6 4.6 0 0 0-3.8-2.2h-0.42a9.6 9.6 0 0 0-4.9 1.9 11 11 0 0 0-3.5 3.9 20 20 0 0 0-1.5 5.4 41 41 0 0 0 6-0.75 19 19 0 0 0 6.7-2.5 3.9 3.9 0 0 0 2.1-3.5 5.7 5.7 0 0 0-0.27-1.6z" inkscape:connector-curvature="0"/>
 <path class="cls-1" d="m395 764v-0.2q0-4.1 2-6.1a6.2 6.2 0 0 1 4.6-1.6c0.56 0 1.2 0 1.8 0.1 2.2 0.42 3.6 1.2 4 2.3a9.4 9.4 0 0 1 0.63 3.7v2c0 0.3 0.09 0.47 0.16 0.47h0.01a0.59 0.59 0 0 0 0.36-0.21c0.14-0.18 0.32-0.39 0.52-0.67a7.8 7.8 0 0 1 0.68-0.88 26 26 0 0 1 6.2-4.6 19 19 0 0 1 7.9-2.4h0.63a8.4 8.4 0 0 1 6.2 2.8 27 27 0 0 1 2.8 4l0.73 1.2c0.48 0.69 0.92 1 1.3 1a0.8 0.8 0 0 0 0.27-0.05 4.7 4.7 0 0 0 1.4-1.5l0.83-0.93a20 20 0 0 1 13-6.5l0.68-0.06h0.16a8.7 8.7 0 0 1 7.1 2.9 17 17 0 0 1 3.6 7.2 45 45 0 0 1 1.2 8c0.07 0.73 0.17 1.8 0.31 3.1 0.25 2.4 0.49 5.2 0.75 8.4s0.41 6.2 0.44 9v0.57a16 16 0 0 1-0.62 5.2 3.8 3.8 0 0 1-3.3 2.1h-0.06a5.3 5.3 0 0 1-3.9-1.7 5.8 5.8 0 0 1-1.6-4.4c0-0.34 0-0.69 0.05-1 0.11-1 0.23-1.9 0.37-2.8 0.27-1.8 0.48-3.8 0.62-6 0.11-1.3 0.16-2.9 0.16-4.9 0-1 0-2-0.05-3.1a43 43 0 0 0-1.1-9.5c-0.71-3-2-4.9-3.8-5.7a2.9 2.9 0 0 0-1.2-0.27q-2.6 0-6.5 3.6a23 23 0 0 0-6 10 48 48 0 0 0-1.9 12 28 28 0 0 0 0.32 3.8 27 27 0 0 1 0.36 4.3v0.93a4.2 4.2 0 0 1-1.8 3.7 4.6 4.6 0 0 1-1.8 0.4 4.6 4.6 0 0 1-2.7-0.93 5.5 5.5 0 0 1-2.5-3.5c0-0.42-0.06-0.87-0.06-1.4s0-1.1 0.06-1.7c0.1-1.2 0.22-2.4 0.36-3.7q0.27-2.2 0.37-3.8 0.1-1.9 0.1-5v-2.3a52 52 0 0 0-1-9.5q-0.91-4.7-3.4-6.4a3 3 0 0 0-1.8-0.58q-2.1 0-5.2 2.4a27 27 0 0 0-6.8 9.2 32 32 0 0 0-2.8 11c0 1.1-0.05 2.2-0.05 3.3v1.6c0 0.73 0.05 1.4 0.05 2.1 0 1 0 1.9-0.1 2.9a8.8 8.8 0 0 1-1.6 4.4 5.9 5.9 0 0 1-4.4 2.1c-0.35 0-0.68 0.05-1 0.05-2.1 0-3.6-0.59-4.5-1.8a8.7 8.7 0 0 1-1.7-5.1c-0.07-0.93-0.1-1.9-0.1-2.8 0-1.2 0.05-2.3 0.15-3.4 0.07-0.93 0.11-1.8 0.11-2.6 0-2.8 0.05-5.5 0.05-8.3s0-5.5-0.05-8.3q0.01-3-0.04-5.9z" inkscape:connector-curvature="0"/>
 <path class="cls-1" d="m485 759a32 32 0 0 1 11-2c0.76 0 1.5 0 2.3 0.05a21 21 0 0 1 13 4.6 24 24 0 0 1 6.8 13 29 29 0 0 1 0.52 5.4 27 27 0 0 1-1.6 9.2 22 22 0 0 1-9.2 11 29 29 0 0 1-10 3.4 22 22 0 0 1-3.1 0.21 24 24 0 0 1-7.7-1.3 18 18 0 0 1-9.7-8.1 29 29 0 0 1-4-13c-0.07-0.73-0.1-1.4-0.1-2.2a27 27 0 0 1 2.4-11 19 19 0 0 1 9.4-9.2zm13 37a12 12 0 0 0 9.2-4.9 18 18 0 0 0 3.7-10l0.06-1.1a23 23 0 0 0-1.3-7.7 13 13 0 0 0-4.8-6.6 9.6 9.6 0 0 0-5.7-1.6 16 16 0 0 0-3 0.3q-6.2 1.5-8.7 6.1a16 16 0 0 0-1.9 7.6 20 20 0 0 0 0.26 3.1 24 24 0 0 0 3.7 9.7 11 11 0 0 0 8.4 5.4z" inkscape:connector-curvature="0"/>
 <path class="cls-1" d="m530 731c0-0.52-0.05-1.1-0.05-1.6a28 28 0 0 1 0.21-3.4 8.2 8.2 0 0 1 1.7-4.3 5.2 5.2 0 0 1 4.4-1.7h0.16c2.6 0.2 4.4 1.2 5.4 3a14 14 0 0 1 1.7 6.4c0 0.93 0.05 1.8 0.05 2.7 0 1.5-0.05 3-0.15 4.4-0.07 0.93-0.13 1.8-0.16 2.6q-0.16 4-0.16 11c0 2.2 0 4.4 0.05 6.7q0.06 4.3 0.06 8.5a22 22 0 0 1 7.3-6.3 21 21 0 0 1 9.3-2.5 13 13 0 0 1 3.5 0.47q5.6 1.6 7.7 9.9a30 30 0 0 1 0.78 6.9 39 39 0 0 1-5.4 19 20 20 0 0 1-9.4 8.4 14 14 0 0 1-5.5 1.1 21 21 0 0 1-7.9-1.8 1.5 1.5 0 0 1-0.37-0.15 6 6 0 0 0-1.2-0.47 1.6 1.6 0 0 0-0.42-0.05 1.1 1.1 0 0 0-0.57 0.15l-0.73 0.52a15 15 0 0 1-1.7 1.1 3.3 3.3 0 0 1-1.6 0.44 6.2 6.2 0 0 1-4.3-1.4 7.1 7.1 0 0 1-2.2-3.7 19 19 0 0 1-0.57-4.9v-0.47q0.31-12 0.37-24l0.05-8.5-0.05-8.5q-0.06-11-0.42-20zm13 54v7.5q4.7 3.1 8.4 3.1a7.5 7.5 0 0 0 2.5-0.42 12 12 0 0 0 7.1-6.3 28 28 0 0 0 3.1-11c0.1-1.1 0.16-2.2 0.16-3.3a23 23 0 0 0-0.93-6.7q-1.4-4.3-4.7-4.8a2.7 2.7 0 0 0-0.57-0.05q-3.2 0-8.1 5.2a22 22 0 0 0-4.4 7.1 53 53 0 0 0-2.2 7.8c-0.12 0.42-0.23 0.85-0.33 1.3z" inkscape:connector-curvature="0"/>
 <path class="cls-1" d="m590 734a9.1 9.1 0 0 1 5.5 8.2 9.4 9.4 0 0 1-0.32 2.4 6.1 6.1 0 0 1-3.7 4.2 10 10 0 0 1-3.7 0.72 9.5 9.5 0 0 1-2-0.2 5.4 5.4 0 0 1-3.9-2.4 7.7 7.7 0 0 1-0.63-3.3c0-0.34 0-0.71 0.05-1.1a14 14 0 0 1 1.3-5.2 6.3 6.3 0 0 1 3.1-3.3 7.2 7.2 0 0 1 2-0.3 6.8 6.8 0 0 1 2.4 0.41zm-8.7 32v-1a12 12 0 0 1 1.2-5.6c0.8-1.5 2.4-2.3 4.8-2.3 0.38 0 0.78 0 1.2 0.05 2.2 0.32 3.8 1.1 4.7 2.4a8.5 8.5 0 0 1 1.5 4.6c0 0.66 0.06 1.3 0.06 2 0 1.1-0.06 2.3-0.16 3.4s-0.16 2.2-0.16 3.2c0 2.3-0.05 4.6-0.05 6.9a86 86 0 0 0 0.88 11q0.83 5.9 2.6 7.6l0.42 1.4v0.83c-0.45 1.8-1.4 2.7-2.7 2.7h-1.4q-6.2-0.57-9-8.2a57 57 0 0 1-3.2-17c-0.38-3.8-0.59-7.6-0.66-12z" inkscape:connector-curvature="0"/>
 <path class="cls-1" d="m617 722a6.3 6.3 0 0 1 4.9 2.9 12 12 0 0 1 1.6 5.6c0.07 1 0.11 1.9 0.11 2.8 0 1.1-0.05 2.2-0.16 3.3q-0.46 4-0.62 11-0.16 4.8-0.47 9.6t-0.52 9.5v0.47c-0.07 1.5-0.1 3.8-0.1 6.9v0.93q0 4.2 0.42 8.8a35 35 0 0 0 1.7 8.7q1.3 3.6 3.7 4h0.32c0.24 0 0.52 0 0.83-0.05a5.6 5.6 0 0 1 1.1-0.11 4.1 4.1 0 0 1 1 0.11c0.63 0.14 1 0.63 1 1.5a3.5 3.5 0 0 1-1.7 2.7 11 11 0 0 1-3.7 1.6 13 13 0 0 1-2.9 0.37 5.1 5.1 0 0 1-0.78-0.05 9.2 9.2 0 0 1-5.4-2.9 19 19 0 0 1-3.6-5.5 33 33 0 0 1-2-5.9 75 75 0 0 1-1.4-11q-0.31-5.6-0.31-11c0-0.58-0.05-1.2-0.05-1.8q-0.06-5.5-0.06-11v-10q0-6.9-0.15-12a19 19 0 0 1 0.88-5.8q1.1-3.4 5.6-3.7z" inkscape:connector-curvature="0"/>
 <path class="cls-1" d="m647 734a9.1 9.1 0 0 1 5.5 8.2 9.4 9.4 0 0 1-0.32 2.4 6.1 6.1 0 0 1-3.7 4.2 10 10 0 0 1-3.7 0.72 9.5 9.5 0 0 1-2-0.2 5.4 5.4 0 0 1-3.9-2.4 7.7 7.7 0 0 1-0.63-3.3c0-0.34 0-0.71 0.05-1.1a14 14 0 0 1 1.3-5.2 6.3 6.3 0 0 1 3.1-3.3 7.2 7.2 0 0 1 2-0.3 6.8 6.8 0 0 1 2.4 0.41zm-8.7 32v-1a12 12 0 0 1 1.2-5.6c0.8-1.5 2.4-2.3 4.8-2.3 0.38 0 0.78 0 1.2 0.05 2.2 0.32 3.8 1.1 4.7 2.4a8.5 8.5 0 0 1 1.5 4.6c0 0.66 0.06 1.3 0.06 2 0 1.1-0.06 2.3-0.16 3.4s-0.16 2.2-0.16 3.2c0 2.3-0.05 4.6-0.05 6.9a86 86 0 0 0 0.88 11q0.83 5.9 2.6 7.6l0.42 1.4v0.83c-0.45 1.8-1.4 2.7-2.7 2.7h-1.4q-6.2-0.57-9-8.2a57 57 0 0 1-3.2-17c-0.43-3.8-0.6-7.6-0.66-12z" inkscape:connector-curvature="0"/>
 <path class="cls-1" d="m667 764a5.7 5.7 0 0 0-0.78 0.05h-0.73a13 13 0 0 1-3.3-0.42c-1.2-0.35-2-1.4-2.1-3.1q0-2.9 2.1-3.5a12 12 0 0 1 3.2-0.42c0.42 0 0.83 0 1.2 0.06h0.57c0-1.2 0.09-2.4 0.16-3.6 0.07-1.4 0.12-2.7 0.15-4.1v-3c0-0.76-0.05-1.5-0.05-2.3 0-1.3 0.05-2.6 0.16-3.9a12 12 0 0 1 1.7-5.4 6.3 6.3 0 0 1 4.9-2.7 9.6 9.6 0 0 1 1-0.05 4.9 4.9 0 0 1 4 1.6 8.2 8.2 0 0 1 1.7 4.7c0.07 0.83 0.11 1.6 0.11 2.4a29 29 0 0 1-0.16 3l-0.21 2.9q-0.46 5.2-0.63 10 2.9 0 5.7 0.11c2.8 0.28 4.4 1.2 4.9 2.8a3.5 3.5 0 0 1 0.16 1 3.4 3.4 0 0 1-1.9 2.8 9.2 9.2 0 0 1-3.6 0.63c-1.1 0-2.1 0.05-3.1 0.05h-1.4c-0.39 0-0.73 0-1-0.05v1.4q0 3.2 0.16 8.3a111 111 0 0 0 1.2 12q0.94 6.1 3.1 8.5a4 4 0 0 0 2.4 1.1h0.52a12 12 0 0 0 1.9-0.15 6 6 0 0 1 1.1-0.1 3.5 3.5 0 0 1 1.1 0.15c0.45 0.18 0.68 0.75 0.68 1.7v0.42a4.6 4.6 0 0 1-2.6 3.7 12 12 0 0 1-5 1.2h-0.57a20 20 0 0 1-4.3-0.4 11 11 0 0 1-7.2-5.6 32 32 0 0 1-3.7-11 91 91 0 0 1-1.4-12q-0.21-4.9-0.21-8.5z" inkscape:connector-curvature="0"/>
 <path class="cls-1" d="m710 782c0 0.45-0.05 0.92-0.05 1.4a24 24 0 0 0 0.42 4.3 15 15 0 0 0 2.1 5.5 6.3 6.3 0 0 0 4.3 2.9 9.5 9.5 0 0 0 1 0.05 7.1 7.1 0 0 0 5-2 20 20 0 0 0 4-5.2c0.27-0.56 0.52-1.1 0.73-1.7a7.8 7.8 0 0 1 1.1-2.2 1.6 1.6 0 0 1 1.4-0.63 5 5 0 0 1 0.62 0.05 2.8 2.8 0 0 1 2.1 2.2 7.8 7.8 0 0 1 0.15 1.6 9.2 9.2 0 0 1-0.26 2.1 16 16 0 0 1-1 3.3 17 17 0 0 1-16 9.9 19 19 0 0 1-4.5-0.57 15 15 0 0 1-9.2-6.7 27 27 0 0 1-3.8-11 46 46 0 0 1-0.31-5.3 42 42 0 0 1 0.57-6.9q1.6-9.3 7.2-13a18 18 0 0 1 11-3.3 26 26 0 0 1 3.6 0.27 15 15 0 0 1 8.2 3.7q3.3 2.9 3.3 8.1v0.47a11 11 0 0 1-1.7 5.3 14 14 0 0 1-3.9 3.9 25 25 0 0 1-7.7 3.1 51 51 0 0 1-8.3 1.1zm14-16a4.6 4.6 0 0 0-3.8-2.2h-0.42a9.6 9.6 0 0 0-4.9 1.9 11 11 0 0 0-3.5 3.9 20 20 0 0 0-1.5 5.4 41 41 0 0 0 6-0.75 19 19 0 0 0 6.7-2.5 3.9 3.9 0 0 0 2.1-3.5 5.7 5.7 0 0 0-0.27-1.6zm-13-22 7.5-6.9a5.2 5.2 0 0 1 3.7-1.4 4.6 4.6 0 0 1 3 1.6 2.9 2.9 0 0 1 0.93 2.1v0.25a2.8 2.8 0 0 1-1.2 2.1l-1.4 1c-0.93 0.69-2 1.5-3.2 2.4l-3.1 2.4-1.4 1a3.8 3.8 0 0 1-2.4 0.83h-0.27a4.2 4.2 0 0 1-2.5-1.1 3.1 3.1 0 0 1-0.93-2.2v-0.1a2.9 2.9 0 0 1 1.3-2z" inkscape:connector-curvature="0"/>
 <path class="cls-1" d="m795 794a24 24 0 0 1-3.3 3.6 23 23 0 0 1-4 2.7 21 21 0 0 1-9.3 2.5 13 13 0 0 1-3.5-0.47q-5.5-1.6-7.7-9.8a32 32 0 0 1-0.68-6.6 41 41 0 0 1 0.68-7.3 36 36 0 0 1 5.3-14 18 18 0 0 1 11-7.9 15 15 0 0 1 3.3-0.37 12 12 0 0 1 2.3 0.2 28 28 0 0 1 4.3 1 7 7 0 0 0 1.9 0.42h0.1a0.54 0.54 0 0 0 0.23-0.1l0.44-0.25 0.86-0.42 0.7-0.32a12 12 0 0 1 3.7-0.67 4.4 4.4 0 0 1 3.3 1.2q2.1 2.1 2.1 6.9c0 0.73-0.05 1.5-0.05 2.2s-0.07 1.8-0.11 2.8 0 2.6 0.05 4.8q0.06 4 0.11 8.9v3.2q0 3.1-0.05 5.7a25 25 0 0 0 0.73 5.2l0.42 1.4v0.83c-0.45 1.8-1.4 2.7-2.7 2.7h-1.5a8.2 8.2 0 0 1-5-2.7q-1.8-1.4-3.5-5.6zm0-27q-4.7-3-8.2-3.1a6.4 6.4 0 0 0-2.5 0.47 11 11 0 0 0-6.3 6.6 34 34 0 0 0-2.6 11c-0.11 1.2-0.16 2.4-0.16 3.6a26 26 0 0 0 0.68 6.2q1 4.2 4 4.5a1.6 1.6 0 0 0 0.42 0.05q2.9 0 7.8-5.3a22 22 0 0 0 4.4-7.1 60 60 0 0 0 2.2-7.9l0.32-1.2z" inkscape:connector-curvature="0"/>
 <path class="cls-1" d="m858 734q-0.21 13-0.21 28 0 12 0.16 25c0 1.1 0.1 2.2 0.21 3.3s0.15 2.3 0.15 3.5c0 0.66 0 1.3-0.05 2a20 20 0 0 0 0.52 4.5 1.9 1.9 0 0 1 0.11 0.58q0 1.3-2.9 1.7a17 17 0 0 1-2.8 0.16q-4.8 0-8.7-7.5a2 2 0 0 0-0.88 0.47c-0.73 0.63-1.3 1.2-1.8 1.6s-1.1 1-1.7 1.4a19 19 0 0 1-2.5 1.6 22 22 0 0 1-9.4 2.6 9.5 9.5 0 0 1-4-0.78q-4.9-2.2-6.8-8.3a28 28 0 0 1-1.1-8.1 37 37 0 0 1 0.42-5.4 37 37 0 0 1 4.7-14 21 21 0 0 1 9.6-8.9 13 13 0 0 1 5.5-1.1 21 21 0 0 1 8.5 2v-8.2q0-5.5 0.05-10c0-1.8-0.1-3.7-0.21-5.6s-0.1-3.6-0.1-5.2v-1.7a12 12 0 0 1 1.9-6.5 4.9 4.9 0 0 1 4.4-2.2 9.9 9.9 0 0 1 1.7 0.15q4.3 1.2 5 5a29 29 0 0 1 0.47 5.2c0 0.86 0 1.7-0.11 2.6s-0.08 1.8-0.08 2.6zm-13 32q-4.7-3-8.2-3.1a7.7 7.7 0 0 0-2.2 0.3 11 11 0 0 0-6.4 6 32 32 0 0 0-2.9 10 35 35 0 0 0-0.37 4.9 25 25 0 0 0 0.57 5.5q1 4.5 4.1 5.2a5.2 5.2 0 0 0 0.63 0.05q3 0 7.9-5.2a22 22 0 0 0 4.4-7.1 61 61 0 0 0 2.2-7.8c0.1-0.42 0.21-0.86 0.31-1.3z" inkscape:connector-curvature="0"/>
 <path class="cls-1" d="m896 794a24 24 0 0 1-3.3 3.6 23 23 0 0 1-4 2.7 21 21 0 0 1-9.3 2.5 13 13 0 0 1-3.5-0.47q-5.5-1.6-7.7-9.8a32 32 0 0 1-0.68-6.6 41 41 0 0 1 0.68-7.3 36 36 0 0 1 5.3-14 18 18 0 0 1 11-7.9 15 15 0 0 1 3.3-0.37 12 12 0 0 1 2.3 0.2 28 28 0 0 1 4.3 1 7 7 0 0 0 1.9 0.42h0.1a0.54 0.54 0 0 0 0.23-0.1l0.44-0.25 0.86-0.42 0.7-0.32a12 12 0 0 1 3.7-0.67 4.4 4.4 0 0 1 3.3 1.2q2.1 2.1 2.1 6.9c0 0.73-0.05 1.5-0.05 2.2s-0.07 1.8-0.11 2.8 0 2.6 0.05 4.8q0.06 4 0.11 8.9v3.2q0 3.1-0.05 5.7a25 25 0 0 0 0.73 5.2l0.42 1.4v0.83c-0.45 1.8-1.4 2.7-2.7 2.7h-1.5a8.2 8.2 0 0 1-5-2.7q-1.8-1.4-3.5-5.6zm0-27q-4.7-3-8.2-3.1a6.4 6.4 0 0 0-2.5 0.47 11 11 0 0 0-6.3 6.6 34 34 0 0 0-2.6 11c-0.11 1.2-0.16 2.4-0.16 3.6a26 26 0 0 0 0.68 6.2q1 4.2 4 4.5a1.6 1.6 0 0 0 0.42 0.05q2.9 0 7.8-5.3a22 22 0 0 0 4.4-7.1 60 60 0 0 0 2.2-7.9l0.32-1.2z" inkscape:connector-curvature="0"/>
 <path class="cls-1" d="m940 759a23 23 0 0 1 8.8-2.6 5.7 5.7 0 0 1 0.78-0.05 10 10 0 0 1 7.4 3.4 18 18 0 0 1 4.2 11c0.07 1 0.11 2 0.11 3a39 39 0 0 1-1.2 9.8 37 37 0 0 1-4.6 11q-5.8 8.7-14 8.7a22 22 0 0 1-8.5-1.9q-0.06 5.9-0.05 12t0.05 12c0 0.86 0.07 1.8 0.1 2.8 0.11 1.2 0.16 2.4 0.16 3.5 0 0.73 0 1.5-0.05 2.2a11 11 0 0 1-1.4 5 6 6 0 0 1-4.3 2.8 13 13 0 0 1-2.1 0.21c-2.2 0-3.7-0.73-4.4-2.2a13 13 0 0 1-1.2-5.9q0-0.57 0.06-1.1 0.09-17 0.1-33v-26q0-4.5-0.05-9v-0.32q0-6.9 7-7.1 4.6 0.06 5.5 2.4a12 12 0 0 1 0.73 4.3 14 14 0 0 1-0.1 1.7 7.3 7.3 0 0 0-0.05 0.88 24 24 0 0 1 3.3-3.5 22 22 0 0 1 4-2.6zm-7.3 26v5.5a11 11 0 0 1-0.05 1.2v0.57a0.44 0.44 0 0 0 0.2 0.37l0.63 0.42a0.14 0.14 0 0 1 0.11 0.05 15 15 0 0 0 7.6 2.4 7.9 7.9 0 0 0 2.9-0.52 13 13 0 0 0 6.8-6.5 28 28 0 0 0 3-10 27 27 0 0 0 0.16-2.9 22 22 0 0 0-1.1-7.1q-1.5-4-3.8-4.5a4.9 4.9 0 0 0-1-0.11 7.2 7.2 0 0 0-3.8 1.2 25 25 0 0 0-4.7 4 23 23 0 0 0-4.4 7.1 52 52 0 0 0-2.2 7.9z" inkscape:connector-curvature="0"/>
 <path class="cls-1" d="m973 764a5.7 5.7 0 0 0-0.78 0.05h-0.73a13 13 0 0 1-3.3-0.42c-1.2-0.35-2-1.4-2.1-3.1q0-2.9 2.1-3.5a12 12 0 0 1 3.2-0.42c0.42 0 0.83 0 1.2 0.06h0.57c0-1.2 0.09-2.4 0.16-3.6 0.07-1.4 0.12-2.7 0.15-4.1v-3c0-0.76-0.05-1.5-0.05-2.3 0-1.3 0.05-2.6 0.16-3.9a12 12 0 0 1 1.7-5.4 6.3 6.3 0 0 1 4.9-2.7 9.6 9.6 0 0 1 1-0.05 4.9 4.9 0 0 1 4 1.6 8.2 8.2 0 0 1 1.7 4.7c0.07 0.83 0.11 1.6 0.11 2.4a29 29 0 0 1-0.16 3l-0.21 2.9q-0.46 5.2-0.63 10 2.9 0 5.7 0.11c2.8 0.28 4.4 1.2 4.9 2.8a3.5 3.5 0 0 1 0.16 1 3.4 3.4 0 0 1-1.9 2.8 9.2 9.2 0 0 1-3.6 0.63c-1.1 0-2.1 0.05-3.1 0.05h-1.3c-0.39 0-0.73 0-1-0.05v1.4q0 3.2 0.16 8.3a111 111 0 0 0 1.2 12q0.94 6.1 3.1 8.5a4 4 0 0 0 2.4 1.1h0.52a12 12 0 0 0 1.9-0.15 6 6 0 0 1 1.1-0.1 3.5 3.5 0 0 1 1.1 0.15c0.45 0.18 0.68 0.75 0.68 1.7v0.42a4.6 4.6 0 0 1-2.6 3.7 12 12 0 0 1-5 1.2h-0.57a20 20 0 0 1-4.3-0.4 11 11 0 0 1-7.2-5.6 32 32 0 0 1-3.7-11 91 91 0 0 1-1.4-12q-0.21-4.9-0.21-8.5z" inkscape:connector-curvature="0"/>
 <path class="cls-1" d="m1e3 782c0 0.45-0.05 0.92-0.05 1.4a24 24 0 0 0 0.42 4.3 15 15 0 0 0 2.1 5.5 6.3 6.3 0 0 0 4.3 2.9 9.5 9.5 0 0 0 1 0.05 7.1 7.1 0 0 0 5-2 20 20 0 0 0 4-5.2c0.27-0.56 0.52-1.1 0.73-1.7a7.8 7.8 0 0 1 1.1-2.2 1.6 1.6 0 0 1 1.4-0.63 5 5 0 0 1 0.62 0.05 2.8 2.8 0 0 1 2.1 2.2 7.8 7.8 0 0 1 0.15 1.6 9.2 9.2 0 0 1-0.26 2.1 16 16 0 0 1-1.1 3.3 17 17 0 0 1-16 9.9 19 19 0 0 1-4.5-0.57 15 15 0 0 1-9.2-6.7 27 27 0 0 1-3.8-11 46 46 0 0 1-0.31-5.3 42 42 0 0 1 0.57-6.9q1.6-9.3 7.2-13a18 18 0 0 1 11-3.3 26 26 0 0 1 3.6 0.27 15 15 0 0 1 8.2 3.7q3.3 2.9 3.3 8.1v0.47a11 11 0 0 1-1.7 5.3 14 14 0 0 1-3.9 3.9 25 25 0 0 1-7.7 3.1 51 51 0 0 1-8.2 1.2zm14-16a4.6 4.6 0 0 0-3.8-2.2h-0.41a9.6 9.6 0 0 0-4.9 1.9 11 11 0 0 0-3.5 3.9 20 20 0 0 0-1.5 5.4 41 41 0 0 0 6-0.75 19 19 0 0 0 6.7-2.5 3.9 3.9 0 0 0 2.1-3.5 5.7 5.7 0 0 0-0.27-1.6zm-13-22 7.5-6.9a5.2 5.2 0 0 1 3.7-1.4 4.6 4.6 0 0 1 3 1.6 2.9 2.9 0 0 1 0.93 2.1v0.25a2.8 2.8 0 0 1-1.2 2.1l-1.4 1c-0.93 0.69-2 1.5-3.2 2.4l-3.1 2.4-1.4 1a3.8 3.8 0 0 1-2.4 0.83h-0.27a4.2 4.2 0 0 1-2.5-1.1 3.1 3.1 0 0 1-0.93-2.2v-0.1a2.9 2.9 0 0 1 1.3-2z" inkscape:connector-curvature="0"/>
 <path class="cls-1" d="m1059 782c0 0.45-0.05 0.92-0.05 1.4a24 24 0 0 0 0.42 4.3 15 15 0 0 0 2.1 5.5 6.3 6.3 0 0 0 4.3 2.9 9.5 9.5 0 0 0 1 0.05 7.1 7.1 0 0 0 5-2 20 20 0 0 0 4-5.2c0.27-0.56 0.52-1.1 0.73-1.7a7.8 7.8 0 0 1 1.1-2.2 1.6 1.6 0 0 1 1.4-0.63 5 5 0 0 1 0.62 0.05 2.8 2.8 0 0 1 2.1 2.2 7.8 7.8 0 0 1 0.15 1.6 9.2 9.2 0 0 1-0.26 2.1 16 16 0 0 1-1.1 3.3 17 17 0 0 1-16 9.9 19 19 0 0 1-4.5-0.57 15 15 0 0 1-9.2-6.7 27 27 0 0 1-3.8-11 46 46 0 0 1-0.31-5.3 42 42 0 0 1 0.57-6.9q1.6-9.3 7.2-13a18 18 0 0 1 11-3.3 26 26 0 0 1 3.6 0.27 15 15 0 0 1 8.2 3.7q3.3 2.9 3.3 8.1v0.47a11 11 0 0 1-1.7 5.3 14 14 0 0 1-3.9 3.9 25 25 0 0 1-7.7 3.1 51 51 0 0 1-8.2 1.1zm14-16a4.6 4.6 0 0 0-3.8-2.2h-0.42a9.6 9.6 0 0 0-4.9 1.9 11 11 0 0 0-3.5 3.9 20 20 0 0 0-1.5 5.4 41 41 0 0 0 6-0.75 19 19 0 0 0 6.7-2.5 3.9 3.9 0 0 0 2.1-3.5 5.7 5.7 0 0 0-0.27-1.6z" inkscape:connector-curvature="0"/>
 <path class="cls-3" d="m484 310a98 98 0 0 1-38-39q-14-25-14-57t14-57a98 98 0 0 1 38-39q25-14 57-14 31 0 56 14a99 99 0 0 1 39 39q14 25 14 57t-14 57a99 99 0 0 1-38 39q-25 14-56 14t-57-14zm98-23a78 78 0 0 0 29-30q10-19 10-43t-10-43a77 77 0 0 0-29-30q-18-11-42-11t-42 11a77 77 0 0 0-29 30q-10 19-10 43t10 43a78 78 0 0 0 29 30q19 11 42 11t42-11z" inkscape:connector-curvature="0"/>
 <circle class="cls-4" cx="539" cy="213" r="5.4"/>
 <path class="cls-3" d="m441 66h45l-0.08 39s-11 2.5-19 10l0.12-34-27-0.13s-0.21-15 0.07-15z" inkscape:connector-curvature="0"/>
 <path class="cls-3" d="m612 292s10-2 17-21h22l0.12 21z" inkscape:connector-curvature="0"/>
</svg>
