<?xml version="1.0" encoding="UTF-8"?>
<svg width="1081.8" height="841.04" data-name="Calque 1" version="1.1" viewBox="0 0 1081.8 841.04" xmlns="http://www.w3.org/2000/svg" xmlns:cc="http://creativecommons.org/ns#" xmlns:dc="http://purl.org/dc/elements/1.1/" xmlns:rdf="http://www.w3.org/1999/02/22-rdf-syntax-ns#">
 <metadata>
  <rdf:RDF>
   <cc:Work rdf:about="">
    <dc:format>image/svg+xml</dc:format>
    <dc:type rdf:resource="http://purl.org/dc/dcmitype/StillImage"/>
    <dc:title>Nomad logo</dc:title>
   </cc:Work>
  </rdf:RDF>
 </metadata>
 <defs>
  <style>.cls-1{fill:#1a2b3f;}.cls-2,.cls-4{fill:#46b172;}.cls-3{fill:#fff;}.cls-4{stroke:#46b172;stroke-miterlimit:10;stroke-width:21.21px;}</style>
 </defs>
 <title>Nomad logo</title>
 <circle class="cls-1" cx="539.38" cy="199.36" r="199.36"/>
 <path class="cls-1" d="m145.57 522.38a62.21 62.21 0 0 1 25.27 25.71q9.1 16.91 9.11 40.7v72.29a15 15 0 1 1-30 0v-72.29q0-23.8-12.78-36t-33.94-12.2a50.08 50.08 0 0 0-22.48 5 39.79 39.79 0 0 0-15.87 13.51 33.48 33.48 0 0 0-5.73 19.11v82.86a14.79 14.79 0 0 1-4.11 10.73 15.06 15.06 0 0 1-25.86-10.73v-131.05a14.4 14.4 0 0 1 4.26-10.87 14.79 14.79 0 0 1 10.73-4.11q6.76 0 10.87 4.11t4.11 10.87v3.23a65.36 65.36 0 0 1 22.34-14.54 73.94 73.94 0 0 1 27.62-5.14q20.29 0 36.46 8.81z"/>
 <path class="cls-2" d="m260.46 666.5a73.71 73.71 0 0 1-28.8-28.95q-10.29-18.51-10.29-42 0-23.82 10.29-42.32a73.64 73.64 0 0 1 28.8-28.95q18.51-10.44 42-10.44 23.22 0 41.58 10.44a75 75 0 0 1 28.8 28.95q10.43 18.51 10.43 42.32 0 23.5-10.28 42a74.13 74.13 0 0 1-28.64 28.95q-18.37 10.42-41.88 10.43t-42.01-10.43zm68.91-23.08a48.66 48.66 0 0 0 18.51-19.54 59.61 59.61 0 0 0 6.61-28.35 60.47 60.47 0 0 0-6.61-28.51 48.46 48.46 0 0 0-18.51-19.69 54.77 54.77 0 0 0-53.78 0 49.46 49.46 0 0 0-18.66 19.69 59.43 59.43 0 0 0-6.76 28.51 58.58 58.58 0 0 0 6.76 28.35 49.67 49.67 0 0 0 18.66 19.54 54.77 54.77 0 0 0 53.78 0z"/>
 <path class="cls-1" d="m638.2 530.32q15.72 16.75 15.72 46.72v84a14.8 14.8 0 0 1-4.12 10.73 15.06 15.06 0 0 1-25.86-10.73v-84q0-17.92-9-27.18t-23.95-9.25q-15.28 0-25.12 10.58t-9.85 27v82.86a14.82 14.82 0 0 1-4.11 10.73 15.06 15.06 0 0 1-25.79-10.7v-84q0-17.92-9-27.18t-23.95-9.25q-15.58 0-25.41 10.58t-9.85 27v82.86a14.79 14.79 0 0 1-4.11 10.73 15.06 15.06 0 0 1-25.86-10.73v-130.77a14.45 14.45 0 0 1 4.26-10.88 14.83 14.83 0 0 1 10.73-4.11 14.63 14.63 0 0 1 10.58 4 14.84 14.84 0 0 1 4.41 10.43 54.16 54.16 0 0 1 18.22-11.9 60.87 60.87 0 0 1 22.92-4.26 58.68 58.68 0 0 1 26.89 6 51.62 51.62 0 0 1 19.54 17.18 61.33 61.33 0 0 1 22-17 68.64 68.64 0 0 1 29.38-6.17q25.61-0.04 41.33 16.71z"/>
 <path class="cls-1" d="m817.44 524.58a79.14 79.14 0 0 1 29.09 29.39 82 82 0 0 1 10.73 41.59v65.52a15 15 0 1 1-30 0v-10.87a74 74 0 0 1-95.06 16.15 74.14 74.14 0 0 1-27-29.23q-9.85-18.65-9.85-41.57a82.84 82.84 0 0 1 10.58-41.59 77.38 77.38 0 0 1 29.19-29.39 81.46 81.46 0 0 1 41.28-10.73 79.91 79.91 0 0 1 41.04 10.73zm-14.4 118.72a50.82 50.82 0 0 0 18.66-19.68 58.08 58.08 0 0 0 6.76-28.06 58.93 58.93 0 0 0-6.76-28.22 51.81 51.81 0 0 0-71.84-19.84 51.74 51.74 0 0 0-18.81 19.84 57.88 57.88 0 0 0-6.91 28.22 57 57 0 0 0 6.91 28.06 51.9 51.9 0 0 0 18.81 19.68 52.73 52.73 0 0 0 53.19 0z"/>
 <path class="cls-1" d="m1051.5 450.39a14.71 14.71 0 0 1 4.11 10.87v134a81.9 81.9 0 0 1-10.73 41.57 79 79 0 0 1-29.09 29.39 79.79 79.79 0 0 1-41 10.73 81.34 81.34 0 0 1-41.28-10.73 77.21 77.21 0 0 1-29.24-29.39 82.76 82.76 0 0 1-10.58-41.57q0-22.92 9.85-41.59a74.22 74.22 0 0 1 27-29.23 71.69 71.69 0 0 1 38.35-10.58 72.24 72.24 0 0 1 56.72 26.75v-79.35a14.44 14.44 0 0 1 4.26-10.87 16.23 16.23 0 0 1 21.6 0zm-50.1 192.91a50.52 50.52 0 0 0 18.66-19.84 58.84 58.84 0 0 0 6.76-28.21 58 58 0 0 0-6.76-28.06 50.94 50.94 0 0 0-18.66-19.69 52.73 52.73 0 0 0-53.19 0 52 52 0 0 0-18.81 19.69 57 57 0 0 0-6.91 28.06 57.8 57.8 0 0 0 6.91 28.21 51.57 51.57 0 0 0 18.81 19.84 52.73 52.73 0 0 0 53.19 0z"/>
 <path class="cls-1" d="m20.467 759.31a23.38 23.38 0 0 1 8.78-2.65 5.74 5.74 0 0 1 0.78-0.05 10.16 10.16 0 0 1 7.37 3.37 18 18 0 0 1 4.21 10.59c0.07 1 0.11 2 0.11 3a39.13 39.13 0 0 1-1.25 9.76 36.63 36.63 0 0 1-4.57 10.86q-5.82 8.73-14.28 8.73a21.81 21.81 0 0 1-8.47-1.92q-0.06 5.87-0.05 11.79t0.05 11.74c0 0.86 0.07 1.79 0.1 2.8 0.11 1.17 0.16 2.35 0.16 3.52 0 0.73 0 1.46-0.05 2.18a10.82 10.82 0 0 1-1.35 5 6 6 0 0 1-4.31 2.8 12.62 12.62 0 0 1-2.13 0.21c-2.22 0-3.67-0.73-4.36-2.18a13.07 13.07 0 0 1-1.2-5.92q0-0.57 0.06-1.14 0.09-16.54 0.1-33v-26.33q0-4.47-0.05-9v-0.32q0-6.86 7-7.06 4.57 0.06 5.51 2.44a11.58 11.58 0 0 1 0.73 4.32 14.34 14.34 0 0 1-0.1 1.7 7.33 7.33 0 0 0-0.05 0.88 24.14 24.14 0 0 1 3.3-3.52 21.93 21.93 0 0 1 3.96-2.6zm-7.35 25.81v5.51a11.29 11.29 0 0 1-0.05 1.2v0.57a0.44 0.44 0 0 0 0.2 0.37l0.63 0.42a0.14 0.14 0 0 1 0.11 0.05 15.42 15.42 0 0 0 7.58 2.44 7.91 7.91 0 0 0 2.91-0.52 13 13 0 0 0 6.77-6.49 28.08 28.08 0 0 0 3-10.44 27.19 27.19 0 0 0 0.16-2.9 21.7 21.7 0 0 0-1.09-7.07q-1.51-4-3.79-4.46a4.87 4.87 0 0 0-1-0.11 7.2 7.2 0 0 0-3.85 1.25 24.54 24.54 0 0 0-4.67 4 23.14 23.14 0 0 0-4.36 7.13 51.59 51.59 0 0 0-2.18 7.88z"/>
 <path class="cls-1" d="m61.547 758.63a31.64 31.64 0 0 1 11.48-2c0.76 0 1.52 0 2.29 0.05a21.26 21.26 0 0 1 12.83 4.57 23.69 23.69 0 0 1 6.81 12.83 29 29 0 0 1 0.52 5.4 27.16 27.16 0 0 1-1.61 9.19 21.63 21.63 0 0 1-9.25 11.23 29.1 29.1 0 0 1-10.29 3.42 22.34 22.34 0 0 1-3.06 0.21 24.1 24.1 0 0 1-7.69-1.3 18.48 18.48 0 0 1-9.66-8.06 28.63 28.63 0 0 1-4.05-13c-0.07-0.73-0.1-1.45-0.1-2.18a26.62 26.62 0 0 1 2.39-11.16 18.68 18.68 0 0 1 9.39-9.2zm13.35 37.35a11.65 11.65 0 0 0 9.24-4.89 18.49 18.49 0 0 0 3.69-10.18l0.06-1.14a22.93 22.93 0 0 0-1.3-7.69 13.2 13.2 0 0 0-4.83-6.6 9.59 9.59 0 0 0-5.66-1.65 15.56 15.56 0 0 0-3 0.3q-6.18 1.46-8.68 6.14a15.59 15.59 0 0 0-1.87 7.58 19.85 19.85 0 0 0 0.26 3.12 24 24 0 0 0 3.66 9.66 11.42 11.42 0 0 0 8.43 5.35z"/>
 <path class="cls-1" d="m116.12 789.74c1.38 3.09 3.22 4.9 5.51 5.46a2.64 2.64 0 0 0 0.57 0.05 4.16 4.16 0 0 0 2.86-1.24 13.8 13.8 0 0 0 2.88-3.38 21.69 21.69 0 0 0 1.79-3.42 65 65 0 0 0 3.85-17.4c0.07-0.8 0.11-1.77 0.11-2.92a44.89 44.89 0 0 1 0.36-5.61 8.86 8.86 0 0 1 1.82-4.62 4 4 0 0 1 3.17-1.25 8.74 8.74 0 0 1 1.66 0.16 5.37 5.37 0 0 1 3.64 2.8 12.12 12.12 0 0 1 1.25 4.87c0.1 1.46 0.15 2.88 0.15 4.27v1c0 0.66-0.05 1.25-0.05 1.77v3.89q0 3.9-0.05 7.79c0 1 0 2.07-0.05 3.07v1.62l0.05 1.76c0 1.88-0.09 3.89-0.26 6a12.7 12.7 0 0 1-1.87 6.33 4.63 4.63 0 0 1-3.07 1.41 3.65 3.65 0 0 1-1-0.16 6.63 6.63 0 0 1-3.38-2.78 13.18 13.18 0 0 1-1.93-4.33 9.71 9.71 0 0 1-0.15-1.35c0-0.24 0-0.35-0.05-0.34a1.45 1.45 0 0 0-0.27 0.39 24 24 0 0 1-1.4 2.07 19.7 19.7 0 0 1-6.18 5.87 8.92 8.92 0 0 1-4.52 1.2 12.53 12.53 0 0 1-3.79-0.63 13.38 13.38 0 0 1-6.71-6.15 38.12 38.12 0 0 1-3.84-9.82c-0.87-3.55-1.49-6.67-1.88-9.37-0.2-1.21-0.47-3.11-0.78-5.68s-0.52-5.13-0.63-7.61c0-0.66-0.05-1.26-0.05-1.82a10.87 10.87 0 0 1 0.42-3.49c0.76-1.52 1.77-2.29 3-2.29h0.11a11.6 11.6 0 0 1 1.45-0.25q5.19 0 5.2 7.48v5.4q0 3-0.11 7.58 0.69 10.43 2.17 13.67z"/>
 <path class="cls-1" d="m173.55 769.39a32.53 32.53 0 0 0-3.17 6 34.1 34.1 0 0 0-2.59 7.69 24.7 24.7 0 0 0-0.36 4.41c0 0.56 0 1.14 0.05 1.72 0 1.29 0.05 2.85 0.05 4.72v0.32a12.35 12.35 0 0 1-1.19 5.82c-0.76 1.53-2.37 2.29-4.83 2.29h-0.32q-4.21-0.42-5-3.49a18.25 18.25 0 0 1-0.62-4.77 17.71 17.71 0 0 1 0.1-1.87c0-0.45 0.05-0.91 0.05-1.35s0-0.83 0.06-1.25l0.1-4.57v-4.15q0-8.32-0.16-16.62v-0.79a9.12 9.12 0 0 1 1.25-5.14c1-1.43 2.84-2.13 5.61-2.13q3.49 0 4.47 9l0.26 2.34a22.66 22.66 0 0 1 1.33-3 11 11 0 0 1 1.84-2.7 20.62 20.62 0 0 1 6.28-4.36 12.61 12.61 0 0 1 5.1-1 16.41 16.41 0 0 1 5.14 0.88 4.51 4.51 0 0 1 2.54 2.12 2.59 2.59 0 0 1 0.47 1.52 22.2 22.2 0 0 1-0.1 2.61 7.43 7.43 0 0 1-0.42 1.59c-0.76 2-1.91 3.06-3.43 3.06h-0.63c-1 0-2.59-0.82-4.78-2.49a2.4 2.4 0 0 0-1.29-0.73 5.85 5.85 0 0 0-2.91 1.15 13.23 13.23 0 0 0-2.9 3.17z"/>
 <path class="cls-1" d="m233.02 789.74c1.38 3.09 3.22 4.9 5.51 5.46a2.64 2.64 0 0 0 0.57 0.05 4.16 4.16 0 0 0 2.86-1.24 13.8 13.8 0 0 0 2.88-3.38 21.69 21.69 0 0 0 1.79-3.42 65 65 0 0 0 3.85-17.4c0.07-0.8 0.11-1.77 0.11-2.92a44.89 44.89 0 0 1 0.36-5.61 8.86 8.86 0 0 1 1.82-4.62 4 4 0 0 1 3.17-1.25 8.74 8.74 0 0 1 1.66 0.16 5.37 5.37 0 0 1 3.64 2.8 12.12 12.12 0 0 1 1.25 4.87c0.1 1.46 0.15 2.88 0.15 4.27v1c0 0.66-0.05 1.25-0.05 1.77v3.89q0 3.9-0.05 7.79c0 1 0 2.07-0.05 3.07v1.62l0.05 1.76c0 1.88-0.09 3.89-0.26 6a12.7 12.7 0 0 1-1.87 6.33 4.63 4.63 0 0 1-3.07 1.41 3.65 3.65 0 0 1-1-0.16 6.63 6.63 0 0 1-3.38-2.78 13.18 13.18 0 0 1-1.93-4.33 9.71 9.71 0 0 1-0.15-1.35c0-0.24 0-0.35-0.05-0.34a1.45 1.45 0 0 0-0.27 0.39 24 24 0 0 1-1.4 2.07 19.7 19.7 0 0 1-6.18 5.87 8.92 8.92 0 0 1-4.52 1.2 12.53 12.53 0 0 1-3.79-0.63 13.38 13.38 0 0 1-6.71-6.15 38.12 38.12 0 0 1-3.84-9.82c-0.87-3.55-1.49-6.67-1.88-9.37-0.2-1.21-0.47-3.11-0.78-5.68s-0.52-5.13-0.63-7.61c0-0.66-0.05-1.26-0.05-1.82a10.87 10.87 0 0 1 0.42-3.49c0.76-1.52 1.77-2.29 3-2.29h0.11a11.6 11.6 0 0 1 1.45-0.25q5.19 0 5.2 7.48v5.4q0 3-0.11 7.58 0.72 10.43 2.17 13.67z"/>
 <path class="cls-1" d="m293.12 758.68q5.5-2.63 9.35-2.64a9.18 9.18 0 0 1 2.44 0.3 10 10 0 0 1 6.57 5.92 34.56 34.56 0 0 1 2.68 11.74q0.63 7.27 0.63 14.6 0 3.9-0.16 7.74a7.64 7.64 0 0 1-1.61 4.15 3.7 3.7 0 0 1-3 1.4 6.66 6.66 0 0 1-1.35-0.15 3.47 3.47 0 0 1-2.7-3c0-0.45-0.05-0.9-0.05-1.35a15.71 15.71 0 0 1 0.31-3.07c0.07-0.44 0.12-0.86 0.16-1.24q0.31-2.44 0.52-7.27c0.07-1.45 0.11-2.93 0.11-4.42 0-1.79-0.06-3.65-0.16-5.56a32.9 32.9 0 0 0-1.64-8.94q-1.33-3.73-4.13-4.1h-0.42q-2.7 0-7.12 4.57l-0.88 0.93a27.48 27.48 0 0 0-5.15 9.26 32.35 32.35 0 0 0-1.66 10.18v0.32c0 0.66 0 1.33 0.05 2s0.06 1.34 0.06 2a37.49 37.49 0 0 1-0.21 4 8 8 0 0 1-1.93 4.84 5.2 5.2 0 0 1-4 1.4 15.8 15.8 0 0 1-1.67-0.1q-4.41-0.8-5.19-3.64a15.71 15.71 0 0 1-0.47-4 24.73 24.73 0 0 1 0.15-2.65l0.11-2.39q0.1-4.15 0.1-8.21t-0.1-8.11q-0.06-4.41-0.05-8.88c0-3 0.8-5.3 2.39-6.76a6.14 6.14 0 0 1 4.36-1.55 12.57 12.57 0 0 1 2.65 0.3c1.87 0.49 3 1.34 3.32 2.55a10 10 0 0 1 0.42 3c0 0.42 0 0.83-0.05 1.25s-0.05 0.85-0.05 1.3c0 0.28 0 0.42 0.1 0.42h0.05c0.07 0 0.16-0.08 0.26-0.21a3.09 3.09 0 0 0 0.42-0.52l0.63-0.83a22.19 22.19 0 0 1 2.24-2.12l0.1-0.1a20.88 20.88 0 0 1 3.57-2.36z"/>
 <path class="cls-1" d="m335.46 781.9c0 0.45-0.05 0.92-0.05 1.4a23.88 23.88 0 0 0 0.42 4.27 15.22 15.22 0 0 0 2.1 5.46 6.29 6.29 0 0 0 4.34 2.9 9.47 9.47 0 0 0 1 0.05 7.06 7.06 0 0 0 5-2 20.08 20.08 0 0 0 4-5.25c0.27-0.56 0.52-1.11 0.73-1.67a7.81 7.81 0 0 1 1.14-2.17 1.58 1.58 0 0 1 1.35-0.63 5 5 0 0 1 0.62 0.05 2.84 2.84 0 0 1 2.08 2.24 7.75 7.75 0 0 1 0.15 1.57 9.19 9.19 0 0 1-0.26 2.12 16.19 16.19 0 0 1-1.09 3.28 17.42 17.42 0 0 1-15.68 9.86 18.67 18.67 0 0 1-4.52-0.57 15.4 15.4 0 0 1-9.17-6.73 26.78 26.78 0 0 1-3.82-11.24 46.24 46.24 0 0 1-0.31-5.3 41.57 41.57 0 0 1 0.57-6.91q1.56-9.3 7.17-13.46a17.52 17.52 0 0 1 10.7-3.27 25.55 25.55 0 0 1 3.59 0.27 14.86 14.86 0 0 1 8.16 3.69q3.27 2.86 3.27 8.11v0.47a11 11 0 0 1-1.69 5.34 13.63 13.63 0 0 1-3.87 3.9 24.53 24.53 0 0 1-7.72 3.12 50.81 50.81 0 0 1-8.21 1.1zm14-16.37a4.59 4.59 0 0 0-3.84-2.17h-0.42a9.59 9.59 0 0 0-4.91 1.92 11.32 11.32 0 0 0-3.5 3.89 19.81 19.81 0 0 0-1.51 5.4 41 41 0 0 0 5.95-0.75 18.58 18.58 0 0 0 6.68-2.53 3.94 3.94 0 0 0 2.08-3.49 5.66 5.66 0 0 0-0.27-1.6z"/>
 <path class="cls-1" d="m394.83 764.13v-0.2q0-4.11 2-6.14a6.16 6.16 0 0 1 4.62-1.6c0.56 0 1.16 0 1.82 0.1 2.22 0.42 3.57 1.17 4.05 2.29a9.4 9.4 0 0 1 0.63 3.69v2c0 0.3 0.09 0.47 0.16 0.47h0.01a0.59 0.59 0 0 0 0.36-0.21c0.14-0.18 0.32-0.39 0.52-0.67a7.78 7.78 0 0 1 0.68-0.88 25.71 25.71 0 0 1 6.23-4.62 18.59 18.59 0 0 1 7.89-2.4h0.63a8.38 8.38 0 0 1 6.23 2.75 27 27 0 0 1 2.76 4.05l0.73 1.25c0.48 0.69 0.92 1 1.29 1a0.8 0.8 0 0 0 0.27-0.05 4.66 4.66 0 0 0 1.41-1.46l0.83-0.93a19.65 19.65 0 0 1 13-6.54l0.68-0.06h0.16a8.7 8.7 0 0 1 7.07 2.92 17.13 17.13 0 0 1 3.55 7.25 45.11 45.11 0 0 1 1.22 8c0.07 0.73 0.17 1.76 0.31 3.07 0.25 2.39 0.49 5.19 0.75 8.38s0.41 6.2 0.44 9v0.57a15.62 15.62 0 0 1-0.62 5.25 3.77 3.77 0 0 1-3.33 2.07h-0.06a5.34 5.34 0 0 1-3.9-1.72 5.75 5.75 0 0 1-1.56-4.36c0-0.34 0-0.69 0.05-1 0.11-1 0.23-1.94 0.37-2.8 0.27-1.84 0.48-3.83 0.62-6 0.11-1.31 0.16-2.94 0.16-4.87 0-1 0-2-0.05-3.12a43 43 0 0 0-1.12-9.46c-0.71-3-2-4.87-3.77-5.71a2.91 2.91 0 0 0-1.24-0.27q-2.55 0-6.49 3.59a23.14 23.14 0 0 0-5.95 10.08 47.5 47.5 0 0 0-1.9 11.64 28.33 28.33 0 0 0 0.32 3.84 27.13 27.13 0 0 1 0.36 4.31v0.93a4.24 4.24 0 0 1-1.77 3.7 4.6 4.6 0 0 1-1.81 0.4 4.65 4.65 0 0 1-2.7-0.93 5.47 5.47 0 0 1-2.54-3.52c0-0.42-0.06-0.87-0.06-1.35s0-1.07 0.06-1.67c0.1-1.21 0.22-2.44 0.36-3.69q0.27-2.18 0.37-3.79 0.1-1.88 0.1-5v-2.29a52.15 52.15 0 0 0-1-9.53q-0.91-4.66-3.35-6.41a3 3 0 0 0-1.82-0.58q-2.13 0-5.19 2.45a26.51 26.51 0 0 0-6.83 9.24 31.92 31.92 0 0 0-2.83 11.23c0 1.07-0.05 2.16-0.05 3.27v1.65c0 0.73 0.05 1.44 0.05 2.13 0 1 0 1.94-0.1 2.9a8.79 8.79 0 0 1-1.58 4.37 5.92 5.92 0 0 1-4.44 2.13c-0.35 0-0.68 0.05-1 0.05-2.08 0-3.57-0.59-4.46-1.77a8.71 8.71 0 0 1-1.72-5.09c-0.07-0.93-0.1-1.86-0.1-2.75 0-1.15 0.05-2.29 0.15-3.43 0.07-0.93 0.11-1.79 0.11-2.59 0-2.78 0.05-5.54 0.05-8.32s0-5.53-0.05-8.31q0.01-3.01-0.04-5.93z"/>
 <path class="cls-1" d="m485.01 758.63a31.64 31.64 0 0 1 11.48-2c0.76 0 1.52 0 2.29 0.05a21.26 21.26 0 0 1 12.83 4.57 23.69 23.69 0 0 1 6.81 12.83 29 29 0 0 1 0.52 5.4 27.16 27.16 0 0 1-1.61 9.19 21.63 21.63 0 0 1-9.25 11.23 29.1 29.1 0 0 1-10.29 3.42 22.34 22.34 0 0 1-3.06 0.21 24.1 24.1 0 0 1-7.69-1.3 18.48 18.48 0 0 1-9.66-8.06 28.63 28.63 0 0 1-4.05-13c-0.07-0.73-0.1-1.45-0.1-2.18a26.62 26.62 0 0 1 2.39-11.16 18.68 18.68 0 0 1 9.39-9.2zm13.35 37.35a11.65 11.65 0 0 0 9.24-4.89 18.49 18.49 0 0 0 3.69-10.18l0.06-1.14a22.93 22.93 0 0 0-1.3-7.69 13.2 13.2 0 0 0-4.83-6.6 9.59 9.59 0 0 0-5.66-1.65 15.56 15.56 0 0 0-3 0.3q-6.18 1.46-8.68 6.14a15.59 15.59 0 0 0-1.87 7.58 19.85 19.85 0 0 0 0.26 3.12 24 24 0 0 0 3.66 9.66 11.42 11.42 0 0 0 8.43 5.35z"/>
 <path class="cls-1" d="m529.99 731.05c0-0.52-0.05-1.06-0.05-1.62a28.09 28.09 0 0 1 0.21-3.37 8.16 8.16 0 0 1 1.71-4.31 5.21 5.21 0 0 1 4.36-1.72h0.16c2.59 0.2 4.41 1.21 5.43 3a14.14 14.14 0 0 1 1.69 6.45c0 0.93 0.05 1.83 0.05 2.69 0 1.49-0.05 3-0.15 4.37-0.07 0.93-0.13 1.78-0.16 2.55q-0.16 4-0.16 10.7c0 2.22 0 4.44 0.05 6.71q0.06 4.26 0.06 8.46a21.64 21.64 0 0 1 7.32-6.29 21.09 21.09 0 0 1 9.29-2.54 12.69 12.69 0 0 1 3.49 0.47q5.55 1.61 7.74 9.93a30.16 30.16 0 0 1 0.78 6.91 39 39 0 0 1-5.38 19.42 20.37 20.37 0 0 1-9.38 8.42 13.79 13.79 0 0 1-5.46 1.09 20.88 20.88 0 0 1-7.94-1.77 1.48 1.48 0 0 1-0.37-0.15 6 6 0 0 0-1.19-0.47 1.57 1.57 0 0 0-0.42-0.05 1.09 1.09 0 0 0-0.57 0.15l-0.73 0.52a14.89 14.89 0 0 1-1.71 1.06 3.34 3.34 0 0 1-1.61 0.44 6.25 6.25 0 0 1-4.26-1.35 7.11 7.11 0 0 1-2.18-3.69 19.05 19.05 0 0 1-0.57-4.87v-0.47q0.31-11.74 0.37-23.54l0.05-8.51-0.05-8.52q-0.06-11.38-0.42-20.1zm13.2 53.5v7.48q4.73 3.13 8.41 3.12a7.49 7.49 0 0 0 2.49-0.42 12.28 12.28 0 0 0 7.07-6.31 28.15 28.15 0 0 0 3.12-10.57c0.1-1.14 0.16-2.24 0.16-3.27a22.62 22.62 0 0 0-0.93-6.69q-1.41-4.32-4.73-4.79a2.74 2.74 0 0 0-0.57-0.05q-3.22 0-8.1 5.24a22 22 0 0 0-4.41 7.12 53.18 53.18 0 0 0-2.18 7.84c-0.12 0.42-0.23 0.85-0.33 1.3z"/>
 <path class="cls-1" d="m590.35 733.6a9.1 9.1 0 0 1 5.46 8.2 9.41 9.41 0 0 1-0.32 2.4 6.11 6.11 0 0 1-3.74 4.15 10 10 0 0 1-3.69 0.72 9.5 9.5 0 0 1-2-0.2 5.35 5.35 0 0 1-3.9-2.44 7.74 7.74 0 0 1-0.63-3.33c0-0.34 0-0.71 0.05-1.09a14.32 14.32 0 0 1 1.28-5.19 6.32 6.32 0 0 1 3.09-3.33 7.16 7.16 0 0 1 2-0.3 6.79 6.79 0 0 1 2.4 0.41zm-8.73 31.63v-1a11.59 11.59 0 0 1 1.25-5.62c0.8-1.52 2.39-2.29 4.78-2.29 0.38 0 0.78 0 1.19 0.05 2.25 0.32 3.83 1.1 4.73 2.37a8.52 8.52 0 0 1 1.5 4.55c0 0.66 0.06 1.33 0.06 2 0 1.14-0.06 2.29-0.16 3.42s-0.16 2.17-0.16 3.17c0 2.29-0.05 4.6-0.05 6.92a85.55 85.55 0 0 0 0.88 10.95q0.83 5.93 2.59 7.59l0.42 1.45v0.83c-0.45 1.81-1.35 2.7-2.7 2.7h-1.45q-6.18-0.57-9-8.21a57.33 57.33 0 0 1-3.22-17.35c-0.38-3.76-0.59-7.61-0.66-11.53z"/>
 <path class="cls-1" d="m616.85 721.69a6.29 6.29 0 0 1 4.94 2.87 11.94 11.94 0 0 1 1.55 5.56c0.07 1 0.11 1.91 0.11 2.8 0 1.11-0.05 2.2-0.16 3.27q-0.46 4.05-0.62 11.28-0.16 4.77-0.47 9.61t-0.52 9.46v0.47c-0.07 1.52-0.1 3.83-0.1 6.91v0.93q0 4.21 0.42 8.78a34.85 34.85 0 0 0 1.69 8.73q1.27 3.64 3.71 4h0.32c0.24 0 0.52 0 0.83-0.05a5.64 5.64 0 0 1 1.09-0.11 4.13 4.13 0 0 1 1 0.11c0.63 0.14 1 0.63 1 1.5a3.54 3.54 0 0 1-1.72 2.68 11 11 0 0 1-3.69 1.63 13.33 13.33 0 0 1-2.86 0.37 5.07 5.07 0 0 1-0.78-0.05 9.21 9.21 0 0 1-5.37-2.88 19.12 19.12 0 0 1-3.56-5.48 33.06 33.06 0 0 1-2-5.92 75 75 0 0 1-1.4-10.94q-0.31-5.64-0.31-11.15c0-0.58-0.05-1.17-0.05-1.76q-0.06-5.46-0.06-10.91v-10q0-6.91-0.15-12.16a18.55 18.55 0 0 1 0.88-5.76q1.09-3.43 5.61-3.7z"/>
 <path class="cls-1" d="m646.62 733.6a9.1 9.1 0 0 1 5.46 8.2 9.41 9.41 0 0 1-0.32 2.4 6.11 6.11 0 0 1-3.74 4.15 10 10 0 0 1-3.69 0.72 9.5 9.5 0 0 1-2-0.2 5.35 5.35 0 0 1-3.9-2.44 7.74 7.74 0 0 1-0.63-3.33c0-0.34 0-0.71 0.05-1.09a14.32 14.32 0 0 1 1.28-5.19 6.32 6.32 0 0 1 3.09-3.33 7.16 7.16 0 0 1 2-0.3 6.79 6.79 0 0 1 2.4 0.41zm-8.73 31.63v-1a11.59 11.59 0 0 1 1.25-5.62c0.8-1.52 2.39-2.29 4.78-2.29 0.38 0 0.78 0 1.19 0.05 2.25 0.32 3.83 1.1 4.73 2.37a8.52 8.52 0 0 1 1.5 4.55c0 0.66 0.06 1.33 0.06 2 0 1.14-0.06 2.29-0.16 3.42s-0.16 2.17-0.16 3.17c0 2.29-0.05 4.6-0.05 6.92a85.55 85.55 0 0 0 0.88 10.95q0.83 5.93 2.59 7.59l0.42 1.45v0.83c-0.45 1.81-1.35 2.7-2.7 2.7h-1.45q-6.18-0.57-9-8.21a57.33 57.33 0 0 1-3.22-17.35c-0.43-3.76-0.6-7.61-0.66-11.53z"/>
 <path class="cls-1" d="m667.45 763.78a5.71 5.71 0 0 0-0.78 0.05h-0.73a12.84 12.84 0 0 1-3.33-0.42c-1.24-0.35-2-1.39-2.13-3.12q0-2.86 2.13-3.49a11.82 11.82 0 0 1 3.17-0.42c0.42 0 0.83 0 1.24 0.06h0.57c0-1.21 0.09-2.41 0.16-3.59 0.07-1.35 0.12-2.73 0.15-4.1v-3c0-0.76-0.05-1.54-0.05-2.34 0-1.28 0.05-2.58 0.16-3.89a11.66 11.66 0 0 1 1.69-5.38 6.26 6.26 0 0 1 4.86-2.68 9.59 9.59 0 0 1 1-0.05 4.9 4.9 0 0 1 4.05 1.55 8.23 8.23 0 0 1 1.71 4.67c0.07 0.83 0.11 1.65 0.11 2.45a28.8 28.8 0 0 1-0.16 3l-0.21 2.92q-0.46 5.25-0.63 10.33 2.86 0 5.66 0.11c2.8 0.28 4.43 1.19 4.88 2.75a3.47 3.47 0 0 1 0.16 1 3.4 3.4 0 0 1-1.87 2.85 9.19 9.19 0 0 1-3.59 0.63c-1.07 0-2.1 0.05-3.06 0.05h-1.4c-0.39 0-0.73 0-1-0.05v1.45q0 3.22 0.16 8.31a110.84 110.84 0 0 0 1.19 12.46q0.94 6.08 3.07 8.47a4 4 0 0 0 2.44 1.14h0.52a12 12 0 0 0 1.93-0.15 6 6 0 0 1 1.09-0.1 3.52 3.52 0 0 1 1.09 0.15c0.45 0.18 0.68 0.75 0.68 1.72v0.42a4.57 4.57 0 0 1-2.59 3.74 12.43 12.43 0 0 1-5 1.19h-0.57a20.33 20.33 0 0 1-4.31-0.4 11 11 0 0 1-7.2-5.57 32.45 32.45 0 0 1-3.66-10.54 91 91 0 0 1-1.35-11.95q-0.21-4.92-0.21-8.51z"/>
 <path class="cls-1" d="m709.52 781.9c0 0.45-0.05 0.92-0.05 1.4a23.88 23.88 0 0 0 0.42 4.27 15.22 15.22 0 0 0 2.1 5.46 6.29 6.29 0 0 0 4.34 2.9 9.47 9.47 0 0 0 1 0.05 7.06 7.06 0 0 0 5-2 20.08 20.08 0 0 0 4-5.25c0.27-0.56 0.52-1.11 0.73-1.67a7.81 7.81 0 0 1 1.14-2.17 1.58 1.58 0 0 1 1.35-0.63 5 5 0 0 1 0.62 0.05 2.84 2.84 0 0 1 2.08 2.24 7.75 7.75 0 0 1 0.15 1.57 9.19 9.19 0 0 1-0.26 2.12 16.19 16.19 0 0 1-1.02 3.26 17.42 17.42 0 0 1-15.68 9.86 18.67 18.67 0 0 1-4.52-0.57 15.4 15.4 0 0 1-9.17-6.73 26.78 26.78 0 0 1-3.82-11.24 46.24 46.24 0 0 1-0.31-5.3 41.57 41.57 0 0 1 0.57-6.91q1.56-9.3 7.17-13.46a17.52 17.52 0 0 1 10.7-3.27 25.55 25.55 0 0 1 3.59 0.27 14.86 14.86 0 0 1 8.16 3.69q3.27 2.86 3.27 8.11v0.47a11 11 0 0 1-1.69 5.34 13.63 13.63 0 0 1-3.87 3.9 24.53 24.53 0 0 1-7.72 3.12 50.81 50.81 0 0 1-8.28 1.12zm14-16.37a4.59 4.59 0 0 0-3.84-2.17h-0.42a9.59 9.59 0 0 0-4.91 1.92 11.32 11.32 0 0 0-3.5 3.89 19.81 19.81 0 0 0-1.51 5.4 41 41 0 0 0 5.95-0.75 18.58 18.58 0 0 0 6.68-2.53 3.94 3.94 0 0 0 2.08-3.49 5.66 5.66 0 0 0-0.27-1.6zm-12.72-21.86 7.48-6.86a5.19 5.19 0 0 1 3.69-1.35 4.65 4.65 0 0 1 3 1.55 2.89 2.89 0 0 1 0.93 2.08v0.25a2.81 2.81 0 0 1-1.19 2.13l-1.35 1c-0.93 0.69-2 1.49-3.17 2.39l-3.12 2.4-1.4 1a3.84 3.84 0 0 1-2.39 0.83h-0.27a4.19 4.19 0 0 1-2.54-1.1 3.11 3.11 0 0 1-0.93-2.18v-0.1a2.91 2.91 0 0 1 1.28-2.03z"/>
 <path class="cls-1" d="m795.39 794.06a23.88 23.88 0 0 1-3.3 3.59 22.59 22.59 0 0 1-4 2.7 21.17 21.17 0 0 1-9.34 2.54 12.69 12.69 0 0 1-3.49-0.47q-5.5-1.55-7.68-9.81a31.63 31.63 0 0 1-0.68-6.65 41 41 0 0 1 0.68-7.27 35.86 35.86 0 0 1 5.3-13.76 18.13 18.13 0 0 1 10.8-7.94 15.38 15.38 0 0 1 3.33-0.37 12.17 12.17 0 0 1 2.29 0.2 28.25 28.25 0 0 1 4.31 1 7.05 7.05 0 0 0 1.87 0.42h0.1a0.54 0.54 0 0 0 0.23-0.1l0.44-0.25 0.86-0.42 0.7-0.32a12.43 12.43 0 0 1 3.74-0.67 4.43 4.43 0 0 1 3.28 1.19q2.07 2.14 2.08 6.91c0 0.73-0.05 1.48-0.05 2.24s-0.07 1.82-0.11 2.75 0 2.64 0.05 4.79q0.06 4 0.11 8.93v3.17q0 3.07-0.05 5.72a24.62 24.62 0 0 0 0.73 5.19l0.42 1.45v0.83c-0.45 1.81-1.35 2.7-2.7 2.7h-1.46a8.23 8.23 0 0 1-5-2.7q-1.8-1.43-3.46-5.59zm0-27.12q-4.68-3-8.16-3.06a6.45 6.45 0 0 0-2.49 0.47 11.46 11.46 0 0 0-6.31 6.57 33.7 33.7 0 0 0-2.62 10.78c-0.11 1.24-0.16 2.44-0.16 3.59a26 26 0 0 0 0.68 6.17q1 4.17 3.95 4.52a1.57 1.57 0 0 0 0.42 0.05q2.91 0 7.79-5.29a21.75 21.75 0 0 0 4.39-7.12 60.3 60.3 0 0 0 2.2-7.89l0.32-1.25z"/>
 <path class="cls-1" d="m857.62 734.17q-0.21 13.3-0.21 27.63 0 12.31 0.16 24.62c0 1.07 0.1 2.18 0.21 3.32s0.15 2.34 0.15 3.49c0 0.66 0 1.34-0.05 2a20.45 20.45 0 0 0 0.52 4.52 1.9 1.9 0 0 1 0.11 0.58q0 1.34-2.91 1.7a16.69 16.69 0 0 1-2.75 0.16q-4.78 0-8.68-7.54a2 2 0 0 0-0.88 0.47c-0.73 0.63-1.31 1.16-1.77 1.62s-1.12 1-1.71 1.45a19 19 0 0 1-2.49 1.55 22 22 0 0 1-9.4 2.65 9.47 9.47 0 0 1-3.95-0.78q-4.94-2.24-6.81-8.31a27.86 27.86 0 0 1-1.14-8.11 36.64 36.64 0 0 1 0.42-5.39 37.41 37.41 0 0 1 4.67-13.71 20.83 20.83 0 0 1 9.56-8.94 13.34 13.34 0 0 1 5.51-1.14 21 21 0 0 1 8.47 2v-8.21q0-5.51 0.05-10c0-1.83-0.1-3.69-0.21-5.56s-0.1-3.55-0.1-5.24v-1.67a11.54 11.54 0 0 1 1.87-6.54 4.93 4.93 0 0 1 4.41-2.18 9.91 9.91 0 0 1 1.67 0.15q4.31 1.25 5 5a29 29 0 0 1 0.47 5.2c0 0.86 0 1.74-0.11 2.64s-0.08 1.8-0.08 2.57zm-13 32.25q-4.73-3-8.21-3.06a7.69 7.69 0 0 0-2.18 0.3 10.93 10.93 0 0 0-6.42 5.95 31.52 31.52 0 0 0-2.93 10.17 35 35 0 0 0-0.37 4.92 24.77 24.77 0 0 0 0.57 5.51q1 4.53 4.1 5.15a5.21 5.21 0 0 0 0.63 0.05q3 0 7.9-5.25a21.92 21.92 0 0 0 4.39-7.11 61.21 61.21 0 0 0 2.21-7.84c0.1-0.42 0.21-0.86 0.31-1.3z"/>
 <path class="cls-1" d="m896.27 794.06a23.88 23.88 0 0 1-3.3 3.59 22.59 22.59 0 0 1-4 2.7 21.17 21.17 0 0 1-9.34 2.54 12.69 12.69 0 0 1-3.49-0.47q-5.5-1.55-7.68-9.81a31.63 31.63 0 0 1-0.68-6.65 41 41 0 0 1 0.68-7.27 35.86 35.86 0 0 1 5.3-13.76 18.13 18.13 0 0 1 10.8-7.94 15.38 15.38 0 0 1 3.33-0.37 12.17 12.17 0 0 1 2.29 0.2 28.25 28.25 0 0 1 4.31 1 7.05 7.05 0 0 0 1.87 0.42h0.1a0.54 0.54 0 0 0 0.23-0.1l0.44-0.25 0.86-0.42 0.7-0.32a12.43 12.43 0 0 1 3.74-0.67 4.43 4.43 0 0 1 3.28 1.19q2.07 2.14 2.08 6.91c0 0.73-0.05 1.48-0.05 2.24s-0.07 1.82-0.11 2.75 0 2.64 0.05 4.79q0.06 4 0.11 8.93v3.17q0 3.07-0.05 5.72a24.62 24.62 0 0 0 0.73 5.19l0.42 1.45v0.83c-0.45 1.81-1.35 2.7-2.7 2.7h-1.46a8.23 8.23 0 0 1-5-2.7q-1.81-1.43-3.46-5.59zm0-27.12q-4.68-3-8.16-3.06a6.45 6.45 0 0 0-2.49 0.47 11.46 11.46 0 0 0-6.31 6.57 33.7 33.7 0 0 0-2.62 10.78c-0.11 1.24-0.16 2.44-0.16 3.59a26 26 0 0 0 0.68 6.17q1 4.17 3.95 4.52a1.57 1.57 0 0 0 0.42 0.05q2.91 0 7.79-5.29a21.75 21.75 0 0 0 4.39-7.12 60.3 60.3 0 0 0 2.2-7.89l0.32-1.25z"/>
 <path class="cls-1" d="m939.54 759.31a23.38 23.38 0 0 1 8.78-2.65 5.74 5.74 0 0 1 0.78-0.05 10.16 10.16 0 0 1 7.37 3.37 18 18 0 0 1 4.21 10.59c0.07 1 0.11 2 0.11 3a39.13 39.13 0 0 1-1.25 9.76 36.63 36.63 0 0 1-4.57 10.86q-5.82 8.73-14.28 8.73a21.81 21.81 0 0 1-8.47-1.92q-0.06 5.87-0.05 11.79t0.05 11.74c0 0.86 0.07 1.79 0.1 2.8 0.11 1.17 0.16 2.35 0.16 3.52 0 0.73 0 1.46-0.05 2.18a10.82 10.82 0 0 1-1.35 5 6 6 0 0 1-4.31 2.8 12.62 12.62 0 0 1-2.13 0.21c-2.22 0-3.67-0.73-4.36-2.18a13.07 13.07 0 0 1-1.2-5.92q0-0.57 0.06-1.14 0.09-16.54 0.1-33v-26.33q0-4.47-0.05-9v-0.32q0-6.86 7-7.06 4.57 0.06 5.51 2.44a11.58 11.58 0 0 1 0.73 4.32 14.34 14.34 0 0 1-0.1 1.7 7.33 7.33 0 0 0-0.05 0.88 24.14 24.14 0 0 1 3.3-3.52 21.93 21.93 0 0 1 3.96-2.6zm-7.32 25.81v5.51a11.29 11.29 0 0 1-0.05 1.2v0.57a0.44 0.44 0 0 0 0.2 0.37l0.63 0.42a0.14 0.14 0 0 1 0.11 0.05 15.42 15.42 0 0 0 7.58 2.44 7.91 7.91 0 0 0 2.91-0.52 13 13 0 0 0 6.77-6.49 28.08 28.08 0 0 0 3-10.44 27.19 27.19 0 0 0 0.16-2.9 21.7 21.7 0 0 0-1.09-7.07q-1.51-4-3.79-4.46a4.87 4.87 0 0 0-1-0.11 7.2 7.2 0 0 0-3.85 1.25 24.54 24.54 0 0 0-4.67 4 23.14 23.14 0 0 0-4.36 7.13 51.59 51.59 0 0 0-2.18 7.88z"/>
 <path class="cls-1" d="m973.3 763.78a5.71 5.71 0 0 0-0.78 0.05h-0.73a12.84 12.84 0 0 1-3.33-0.42c-1.24-0.35-2-1.39-2.13-3.12q0-2.86 2.13-3.49a11.82 11.82 0 0 1 3.17-0.42c0.42 0 0.83 0 1.24 0.06h0.57c0-1.21 0.09-2.41 0.16-3.59 0.07-1.35 0.12-2.73 0.15-4.1v-3c0-0.76-0.05-1.54-0.05-2.34 0-1.28 0.05-2.58 0.16-3.89a11.66 11.66 0 0 1 1.69-5.38 6.26 6.26 0 0 1 4.86-2.68 9.59 9.59 0 0 1 1-0.05 4.9 4.9 0 0 1 4.05 1.55 8.23 8.23 0 0 1 1.71 4.67c0.07 0.83 0.11 1.65 0.11 2.45a28.8 28.8 0 0 1-0.16 3l-0.21 2.92q-0.46 5.25-0.63 10.33 2.86 0 5.66 0.11c2.8 0.28 4.43 1.19 4.88 2.75a3.47 3.47 0 0 1 0.16 1 3.4 3.4 0 0 1-1.87 2.85 9.19 9.19 0 0 1-3.59 0.63c-1.07 0-2.1 0.05-3.06 0.05h-1.34c-0.39 0-0.73 0-1-0.05v1.45q0 3.22 0.16 8.31a110.84 110.84 0 0 0 1.19 12.46q0.94 6.08 3.07 8.47a4 4 0 0 0 2.44 1.14h0.52a12 12 0 0 0 1.93-0.15 6 6 0 0 1 1.09-0.1 3.52 3.52 0 0 1 1.09 0.15c0.45 0.18 0.68 0.75 0.68 1.72v0.42a4.57 4.57 0 0 1-2.59 3.74 12.43 12.43 0 0 1-5 1.19h-0.57a20.33 20.33 0 0 1-4.31-0.4 11 11 0 0 1-7.2-5.57 32.45 32.45 0 0 1-3.66-10.54 91 91 0 0 1-1.35-11.95q-0.21-4.92-0.21-8.51z"/>
 <path class="cls-1" d="m1015.4 781.9c0 0.45-0.05 0.92-0.05 1.4a23.88 23.88 0 0 0 0.42 4.27 15.22 15.22 0 0 0 2.1 5.46 6.29 6.29 0 0 0 4.34 2.9 9.47 9.47 0 0 0 1 0.05 7.06 7.06 0 0 0 5-2 20.08 20.08 0 0 0 4-5.25c0.27-0.56 0.52-1.11 0.73-1.67a7.81 7.81 0 0 1 1.14-2.17 1.58 1.58 0 0 1 1.35-0.63 5 5 0 0 1 0.62 0.05 2.84 2.84 0 0 1 2.1 2.19 7.75 7.75 0 0 1 0.15 1.57 9.19 9.19 0 0 1-0.26 2.12 16.19 16.19 0 0 1-1.09 3.28 17.42 17.42 0 0 1-15.68 9.86 18.67 18.67 0 0 1-4.52-0.57 15.4 15.4 0 0 1-9.17-6.73 26.78 26.78 0 0 1-3.82-11.24 46.24 46.24 0 0 1-0.31-5.3 41.57 41.57 0 0 1 0.57-6.91q1.56-9.3 7.17-13.46a17.52 17.52 0 0 1 10.7-3.27 25.55 25.55 0 0 1 3.59 0.27 14.86 14.86 0 0 1 8.16 3.69q3.27 2.86 3.27 8.11v0.47a11 11 0 0 1-1.69 5.34 13.63 13.63 0 0 1-3.87 3.9 24.53 24.53 0 0 1-7.72 3.12 50.81 50.81 0 0 1-8.23 1.15zm14-16.37a4.59 4.59 0 0 0-3.84-2.17h-0.41a9.59 9.59 0 0 0-4.91 1.92 11.32 11.32 0 0 0-3.5 3.89 19.81 19.81 0 0 0-1.51 5.4 41 41 0 0 0 5.95-0.75 18.58 18.58 0 0 0 6.68-2.53 3.94 3.94 0 0 0 2.08-3.49 5.66 5.66 0 0 0-0.27-1.6zm-12.72-21.86 7.48-6.86a5.19 5.19 0 0 1 3.69-1.35 4.65 4.65 0 0 1 3 1.55 2.89 2.89 0 0 1 0.93 2.08v0.25a2.81 2.81 0 0 1-1.19 2.13l-1.35 1c-0.93 0.69-2 1.49-3.17 2.39l-3.12 2.4-1.4 1a3.84 3.84 0 0 1-2.39 0.83h-0.27a4.19 4.19 0 0 1-2.54-1.1 3.11 3.11 0 0 1-0.93-2.18v-0.1a2.91 2.91 0 0 1 1.28-2.03z"/>
 <path class="cls-1" d="m1059 781.9c0 0.45-0.05 0.92-0.05 1.4a23.88 23.88 0 0 0 0.42 4.27 15.22 15.22 0 0 0 2.1 5.46 6.29 6.29 0 0 0 4.34 2.9 9.47 9.47 0 0 0 1 0.05 7.06 7.06 0 0 0 5-2 20.08 20.08 0 0 0 4-5.25c0.27-0.56 0.52-1.11 0.73-1.67a7.81 7.81 0 0 1 1.14-2.17 1.58 1.58 0 0 1 1.35-0.63 5 5 0 0 1 0.62 0.05 2.84 2.84 0 0 1 2.08 2.24 7.75 7.75 0 0 1 0.15 1.57 9.19 9.19 0 0 1-0.26 2.12 16.19 16.19 0 0 1-1.09 3.28 17.42 17.42 0 0 1-15.68 9.86 18.67 18.67 0 0 1-4.52-0.57 15.4 15.4 0 0 1-9.17-6.73 26.78 26.78 0 0 1-3.82-11.24 46.24 46.24 0 0 1-0.31-5.3 41.57 41.57 0 0 1 0.57-6.91q1.56-9.3 7.17-13.46a17.52 17.52 0 0 1 10.7-3.27 25.55 25.55 0 0 1 3.59 0.27 14.86 14.86 0 0 1 8.16 3.69q3.27 2.86 3.27 8.11v0.47a11 11 0 0 1-1.69 5.34 13.63 13.63 0 0 1-3.87 3.9 24.53 24.53 0 0 1-7.72 3.12 50.81 50.81 0 0 1-8.21 1.1zm14-16.37a4.59 4.59 0 0 0-3.84-2.17h-0.42a9.59 9.59 0 0 0-4.91 1.92 11.32 11.32 0 0 0-3.5 3.89 19.81 19.81 0 0 0-1.51 5.4 41 41 0 0 0 5.95-0.75 18.58 18.58 0 0 0 6.68-2.53 3.94 3.94 0 0 0 2.08-3.49 5.66 5.66 0 0 0-0.27-1.6z"/>
 <path class="cls-3" d="m484.36 309.71a97.72 97.72 0 0 1-38.44-39q-13.68-25-13.68-56.77t13.68-56.64a97.88 97.88 0 0 1 38.44-38.8q24.77-14 56.51-14 31.44 0 56.22 14a98.76 98.76 0 0 1 38.58 38.85q13.81 24.9 13.81 56.64t-13.81 56.77a98.88 98.88 0 0 1-38.45 39q-24.61 13.95-56.35 14t-56.51-14.05zm98.37-22.85a77.67 77.67 0 0 0 29-30.23q10.39-19.13 10.39-42.68t-10.39-42.68a77.05 77.05 0 0 0-28.87-30.1q-18.46-10.94-42-10.94t-42 10.94a77 77 0 0 0-28.86 30.1q-10.4 19.16-10.4 42.68t10.4 42.68a77.51 77.51 0 0 0 29 30.23q18.6 11.08 41.87 11.08t41.85-11.08z"/>
 <circle class="cls-4" cx="539.28" cy="212.77" r="5.42"/>
 <path class="cls-3" d="m441.29 66.25h45.1l-0.08 39.17s-10.63 2.46-18.52 10.17l0.12-34.4-26.69-0.13s-0.21-15.09 0.07-14.81z"/>
 <path class="cls-3" d="m612.27 292.01s10-2 16.67-20.66h22.33l0.12 20.67z"/>
</svg>
